<?xml version="1.0" encoding="UTF-8" standalone="no"?>
<!-- Created with Inkscape (http://www.inkscape.org/) -->

<svg
   width="240mm"
   height="120mm"
   viewBox="0 0 240 120"
   version="1.1"
   id="svg8"
   inkscape:version="1.1.1 (1:1.1+202109281949+c3084ef5ed)"
   sodipodi:docname="diagram1.svg"
   xmlns:inkscape="http://www.inkscape.org/namespaces/inkscape"
   xmlns:sodipodi="http://sodipodi.sourceforge.net/DTD/sodipodi-0.dtd"
   xmlns="http://www.w3.org/2000/svg"
   xmlns:svg="http://www.w3.org/2000/svg"
   xmlns:rdf="http://www.w3.org/1999/02/22-rdf-syntax-ns#"
   xmlns:cc="http://creativecommons.org/ns#"
   xmlns:dc="http://purl.org/dc/elements/1.1/">
  <defs
     id="defs2">
    <inkscape:path-effect
       effect="powerstroke"
       id="path-effect883"
       is_visible="true"
       lpeversion="1"
       offset_points="5.1838332,0.36015303 | 6.3954829,0.127283 | 9.6237989,0.018955422 | 9.9550889,0.13344922 | 10.272447,0.0030450478 | 11.293327,0.12971904 | 12.599404,0.02740543 | 13.41614,0.06881808 | 14.934288,0.029841468 | 18.068559,0.25890519 | 23.404146,0.18826008 | 26.01937,0.32231831 | 28.517181,0.24428896 | 29.817784,0.29300972 | 37.019583,0.38809134 | 38.123311,0.1638997"
       not_jump="true"
       sort_points="true"
       interpolator_type="CentripetalCatmullRom"
       interpolator_beta="0.75"
       start_linecap_type="round"
       linejoin_type="spiro"
       miter_limit="4"
       scale_width="1"
       end_linecap_type="round" />
    <inkscape:path-effect
       effect="simplify"
       id="path-effect881"
       is_visible="true"
       lpeversion="1"
       steps="1"
       threshold="0.0048554914"
       smooth_angles="0"
       helper_size="0"
       simplify_individual_paths="false"
       simplify_just_coalesce="false"
       step="1" />
  </defs>
  <sodipodi:namedview
     id="base"
     pagecolor="#ffffff"
     bordercolor="#666666"
     borderopacity="1.0"
     inkscape:pageopacity="0.0"
     inkscape:pageshadow="2"
     inkscape:zoom="0.99437388"
     inkscape:cx="85.983755"
     inkscape:cy="182.52692"
     inkscape:document-units="mm"
     inkscape:current-layer="layer1"
     showgrid="true"
     showborder="true"
     width="200mm"
     showguides="true"
     inkscape:guide-bbox="true"
     inkscape:window-width="1848"
     inkscape:window-height="1016"
     inkscape:window-x="72"
     inkscape:window-y="27"
     inkscape:window-maximized="1"
     inkscape:pagecheckerboard="0">
    <inkscape:grid
       type="xygrid"
       id="grid815"
       units="mm"
       spacingx="10"
       spacingy="10"
       empspacing="4"
       dotted="false" />
  </sodipodi:namedview>
  <metadata
     id="metadata5">
    <rdf:RDF>
      <cc:Work
         rdf:about="">
        <dc:format>image/svg+xml</dc:format>
        <dc:type
           rdf:resource="http://purl.org/dc/dcmitype/StillImage" />
        <dc:title />
      </cc:Work>
    </rdf:RDF>
  </metadata>
  <g
     inkscape:label="Layer 1"
     inkscape:groupmode="layer"
     id="layer1"
     transform="translate(0,-177)">
    <circle
       style="fill:none;stroke:#ff0000;stroke-width:0.465;paint-order:stroke fill markers"
       id="path845"
       cx="75"
       cy="232"
       r="35" />
    <path
       d="m 81.954146,227.17374 c -0.373377,-2.16652 -1.119118,-5.67799 -2.705644,-9.19289 -1.176128,-2.60567 -2.914277,-5.44649 -5.547411,-7.80746 -0.0028,-0.003 -0.0057,-0.005 -0.0086,-0.007 -1.248663,-1.05511 -2.895428,-2.07013 -4.73327,-2.60982 -0.863278,-0.25351 -1.773887,-0.40293 -2.698184,-0.39221 -0.899833,0.0104 -1.813523,0.17278 -2.704403,0.53954 -0.0077,0.003 -0.01533,0.007 -0.02284,0.0103 -0.745532,0.36382 -1.342747,0.87972 -1.809851,1.49906 -0.460319,0.61034 -0.788604,1.31342 -1.012416,2.05576 -0.22264,0.73845 -0.342388,1.51729 -0.385889,2.28604 -0.04359,0.77027 -0.01076,1.53266 0.07296,2.23822 4.14e-4,0.003 8.81e-4,0.007 0.0014,0.0105 0.483104,3.31765 1.655355,6.39982 3.157205,9.22891 1.569285,2.95612 3.520071,5.67448 5.437561,8.0827 0.0021,0.003 0.0043,0.005 0.0065,0.008 2.222752,2.65109 4.470175,4.99258 6.877454,6.96749 2.86202,2.34798 5.668329,3.94128 8.459762,4.93889 0.636737,0.23237 1.263339,0.38782 1.845641,0.48452 1.248921,0.2074 2.372609,0.15961 3.297778,-0.0115 0.92777,-0.17159 1.736083,-0.47999 2.421462,-0.87399 0.732638,-0.42116 1.404562,-0.98562 1.964373,-1.71331 0.769205,-0.97747 1.444928,-2.14416 1.952495,-3.52571 0.25051,-0.68185 0.464713,-1.42892 0.626559,-2.2439 0.103794,-0.52265 0.186596,-1.07741 0.242638,-1.66425 0.225481,-2.36112 -0.0015,-5.11108 -0.850155,-7.94869 -0.600515,-2.06576 -1.710392,-4.21349 -3.353988,-5.9556 -0.778893,-0.82558 -1.669469,-1.55002 -2.663125,-2.11743 -0.985235,-0.56259 -2.064604,-0.96666 -3.22662,-1.16478 -1.626216,-0.26429 -3.278703,-0.37227 -4.843428,-0.4638 -1.806019,-0.10565 -3.291086,-0.18202 -4.855126,-0.38305 -2.194308,-0.22872 -3.998336,-0.077 -5.430905,0.26901 -0.49842,0.1204 -0.924177,0.25731 -1.282474,0.3911 -0.504321,0.18831 -0.922368,0.38418 -1.246531,0.55319 -0.68738,0.35837 -1.294022,0.76618 -1.831173,1.32555 -0.122375,0.12744 -0.235207,0.2567 -0.339925,0.38694 -0.755703,0.85176 -1.390614,1.9541 -1.85805,3.29208 -0.03578,0.10241 -0.07113,0.2079 -0.10585,0.31645 -0.298479,0.9332 -0.525474,2.03966 -0.585934,3.34306 -0.10815,2.33147 0.342412,4.92801 1.331471,7.41449 0.616926,1.62034 1.444559,3.17399 2.440854,4.57239 0.690047,0.96855 1.495015,1.91335 2.415837,2.77913 1.058231,0.99497 2.257901,1.87445 3.587251,2.55792 1.305081,0.67099 2.714134,1.14218 4.209979,1.35763 1.075671,0.16528 2.129727,0.0991 3.115213,-0.13622 1.043155,-0.24908 1.995923,-0.68386 2.825802,-1.22156 0.353187,-0.22884 0.683169,-0.47562 0.989333,-0.73434 1.387933,-1.17286 2.320419,-2.61749 2.821677,-4.04781 0.535608,-1.39438 0.868955,-2.90722 0.961404,-4.51458 0.05506,-0.9572 0.02636,-1.97959 -0.111808,-3.05579 -0.06508,-0.50693 -0.153246,-1.01658 -0.264655,-1.52725 -0.618607,-2.83555 -1.96817,-5.74198 -4.032595,-8.24969 -3.577989,-4.4317 -8.892059,-8.67644 -15.579415,-10.83061 -0.425952,-0.13721 -0.858041,-0.26598 -1.295991,-0.38555 -1.803126,-0.47603 -3.847945,-0.62762 -5.887705,-0.27894 -1.881619,0.32165 -3.775315,1.07719 -5.348848,2.42158 -0.004,0.003 -0.0076,0.007 -0.01103,0.0111 -0.929206,1.084 -1.635309,2.30415 -2.135157,3.62396 -0.486911,1.28564 -0.775294,2.65864 -0.885537,4.07733 -0.213409,2.74635 0.244196,5.64086 1.182274,8.29877 1.350238,3.76639 3.354911,7.33102 5.892309,10.58919 2.464126,3.16407 5.416802,6.02028 8.707558,8.45476 0.215419,0.15101 0.428741,0.29777 0.645424,0.44343 1.292311,0.86872 2.799165,1.76349 4.415528,2.38123 0.892104,0.34095 1.833047,0.6038 2.807229,0.73019 0.945093,0.12261 1.926162,0.11742 2.928402,-0.0726 0.0073,-0.001 0.01453,-0.003 0.02169,-0.005 0.806488,-0.22394 1.491492,-0.62254 2.066215,-1.15055 0.562029,-0.51635 1.012095,-1.15038 1.367901,-1.85093 0.350046,-0.68922 0.608328,-1.44177 0.792406,-2.20751 0.181879,-0.75658 0.29105,-1.52501 0.344533,-2.2546 0.253225,-4.34166 -0.576928,-8.66938 -1.626848,-12.8529 -8.28e-4,-0.003 -0.0017,-0.007 -0.0027,-0.01 -1.607726,-5.38578 -4.683597,-10.07811 -8.560436,-13.91636 -3.973236,-3.93369 -8.773217,-6.95966 -13.735346,-8.97505 -2.803013,-1.11254 -5.652749,-1.96215 -8.50191,-2.42683 -3.036143,-0.49518 -5.988287,-0.53952 -8.826816,-0.0611 -1.463707,0.24011 -2.820565,0.4558 -4.185144,0.79469 -0.333606,0.0829 -0.661914,0.17183 -0.984758,0.26844 -0.870563,0.2605 -1.694263,0.57441 -2.464095,0.96611 -0.804311,0.40924 -1.543053,0.90009 -2.206641,1.49413 -0.0041,0.004 -0.008,0.008 -0.01182,0.0116 -0.379502,0.39535 -0.642399,0.83563 -0.830409,1.29081 -0.194337,0.47051 -0.311876,0.96516 -0.391398,1.45279 -0.08152,0.49991 -0.126065,1.01321 -0.166295,1.49837 -0.04176,0.50364 -0.07914,0.9801 -0.145902,1.43758 -5.13e-4,0.004 -8.5e-4,0.007 -0.0012,0.0106 -0.213594,2.14958 0.119219,4.2612 0.81923,6.25505 0.686082,1.95418 1.736389,3.82746 3.017507,5.54444 0.104845,0.14072 0.210748,0.28128 0.317471,0.42136 2.60458,3.41875 5.652553,6.49821 9.012815,9.38333 3.422147,2.93824 7.089162,5.60782 10.785593,8.16794 2.905917,1.94661 5.842977,3.89173 8.971534,5.3976 1.600856,0.77054 3.221753,1.41079 4.879245,1.87199 1.713471,0.47677 3.443424,0.75574 5.204762,0.79814 2.404578,0.0881 4.667959,-0.61972 6.448316,-1.72171 0.06591,-0.0408 0.131183,-0.0821 0.195822,-0.124 0.961862,-0.62309 1.739445,-1.33567 2.351712,-2.05995 0.770728,-0.91173 1.334457,-1.90534 1.707497,-2.93056 0.534946,-1.269 0.847899,-2.61168 0.944371,-4.01023 0.08526,-1.2361 0.0066,-2.59533 -0.296456,-4.06535 -0.307266,-1.49021 -0.859319,-3.15682 -1.751104,-4.923 -0.418022,-0.82789 -0.916764,-1.68975 -1.503767,-2.56077 -2.272883,-3.35241 -5.298909,-6.66782 -9.290532,-9.82175 -3.336855,-2.63657 -7.175348,-5.02342 -11.483398,-7.16463 -3.175261,-1.50322 -6.74363,-2.96264 -10.49736,-3.925 -3.518331,-0.902 -7.283947,-1.39086 -11.15228,-1.03891 -2.236011,0.18679 -4.62864,0.91376 -6.635288,2.22924 -0.982109,0.64383 -1.873039,1.43014 -2.598834,2.36246 -0.719771,0.92457 -1.275816,1.99123 -1.59505,3.1987 -9.3e-4,0.004 -0.0018,0.007 -0.0026,0.0106 -0.297773,1.26917 -0.358603,2.5327 -0.241377,3.77796 0.116897,1.24178 0.410553,2.46197 0.819008,3.64767 0.81847,2.37593 2.10396,4.62884 3.360683,6.64229 0.0019,0.003 0.0039,0.006 0.0059,0.009 5.348329,8.07426 12.41255,14.74871 19.311891,20.47009 0.0057,0.005 0.01144,0.009 0.01733,0.0136 2.165939,1.61698 4.254417,3.2953 6.364212,4.77227 2.317694,1.62251 4.579077,2.95421 7.005515,3.89343 2.022885,0.83401 4.124405,0.98473 5.935692,0.70025 1.059365,-0.16639 2.022529,-0.47957 2.870707,-0.88889 0.997464,-0.48137 1.820077,-1.08711 2.484531,-1.73732 0.05847,-0.0499 0.115371,-0.0999 0.170757,-0.15004 0.797995,-0.72206 1.324481,-1.50101 1.68095,-2.16924 0.516938,-0.96904 0.803391,-1.94758 0.976671,-2.74295 0.353742,-1.62368 0.440753,-3.371 0.446234,-5.77376 -0.01634,-0.63321 -0.04267,-1.31571 -0.08365,-2.04426 -0.200302,-3.56099 -0.776413,-8.6559 -2.538857,-14.25241 -1.269267,-3.31591 -3.033237,-6.83616 -5.434848,-10.0374 -2.210764,-2.94685 -4.984414,-5.6517 -8.419567,-7.62054 -1.820036,-0.93946 -3.764401,-1.60809 -5.803971,-2.1275 -1.993791,-0.50775 -4.031357,-0.86146 -6.065588,-1.1927 -3.751885,-0.56775 -7.527167,-0.48785 -11.211411,0.0765 -3.76471,0.57666 -7.407469,1.6548 -10.808278,3.04013 -1.402676,0.60132 -2.797475,1.07967 -4.111959,1.82395 -0.674435,0.38188 -1.283957,0.81281 -1.80282,1.3257 -0.547656,0.54134 -0.981606,1.16179 -1.282875,1.88528 -0.0019,0.005 -0.0036,0.009 -0.005,0.014 -0.197507,0.64759 -0.193086,1.25505 -0.09312,1.81228 0.108926,0.60718 0.337953,1.18429 0.573566,1.69392 0.274959,0.59474 0.569768,1.1323 0.811186,1.61819 0.315897,0.63579 0.516553,1.1205 0.643098,1.5859 a 0.1638997,0.1638997 90 0 0 0.316314,-0.086 c -0.134469,-0.49455 -0.346928,-1.00132 -0.669149,-1.6447 -0.246435,-0.49205 -0.542566,-1.02769 -0.813572,-1.60723 -0.233379,-0.49908 -0.452374,-1.04714 -0.557324,-1.61541 -0.09535,-0.51628 -0.101777,-1.07158 0.07421,-1.66331 0.282004,-0.68196 0.68906,-1.26965 1.207516,-1.78652 0.493915,-0.49241 1.079464,-0.91142 1.737159,-1.28741 1.293946,-0.73971 2.65258,-1.20915 4.074747,-1.82557 3.379906,-1.38283 7.001821,-2.46028 10.743931,-3.03854 3.66198,-0.56589 7.412694,-0.64946 11.137595,-0.0897 2.032775,0.32709 4.062529,0.67639 6.046391,1.17924 2.028779,0.51423 3.956892,1.17637 5.75378,2.10351 3.399749,1.94841 6.151121,4.63165 8.345531,7.5612 2.384008,3.18266 4.134101,6.68525 5.388378,9.98125 1.737258,5.5709 2.28182,10.64432 2.437542,14.19032 0.03186,0.72559 0.04794,1.40382 0.05339,2.02826 -0.0676,2.40738 -0.249225,4.0753 -0.670198,5.63178 -0.20397,0.75414 -0.517161,1.66178 -1.020847,2.53849 -0.347308,0.60452 -0.843359,1.29796 -1.571514,1.93577 -0.05438,0.0476 -0.110301,0.0952 -0.167858,0.14257 -0.0072,0.006 -0.01399,0.0122 -0.02072,0.0186 -0.618082,0.58805 -1.379456,1.13576 -2.301302,1.56991 -0.781147,0.36788 -1.669042,0.6496 -2.647261,0.79721 -1.674854,0.25274 -3.616526,0.10567 -5.488544,-0.67066 -2.346801,-0.91267 -4.544006,-2.20466 -6.829186,-3.80413 -2.076442,-1.45337 -4.155208,-3.12083 -6.337619,-4.74642 -6.867524,-5.68733 -13.865174,-12.29087 -19.158108,-20.25523 -1.252836,-1.99495 -2.503291,-4.17922 -3.297744,-6.46132 -0.395671,-1.13658 -0.676615,-2.29277 -0.790582,-3.45944 -0.113981,-1.16681 -0.06083,-2.34268 0.210478,-3.52033 0.28655,-1.09721 0.788175,-2.07057 1.444346,-2.92072 0.663846,-0.8601 1.486671,-1.59506 2.406443,-2.20364 1.883788,-1.24643 4.151562,-1.94989 6.285119,-2.13805 3.767874,-0.35329 7.451261,0.11076 10.917304,0.98872 3.698641,0.93687 7.228247,2.36694 10.381255,3.84816 4.272611,2.11068 8.078335,4.46545 11.382396,7.06338 3.951501,3.10701 6.941851,6.37015 9.185214,9.66403 0.575354,0.84714 1.064499,1.68597 1.474285,2.4913 0.874135,1.71788 1.416485,3.3343 1.721156,4.7735 0.300521,1.41961 0.383952,2.72821 0.310125,3.91451 -0.08364,1.34399 -0.375146,2.63344 -0.881431,3.85257 -0.0017,0.004 -0.0033,0.008 -0.0048,0.0124 -0.345558,0.97364 -0.874072,1.9208 -1.60519,2.79238 -0.579516,0.69086 -1.319278,1.37245 -2.23887,1.96877 -0.06179,0.0401 -0.124201,0.0796 -0.187231,0.11865 -1.705647,1.0561 -3.889435,1.72408 -6.174586,1.62759 -1.718186,-0.0474 -3.404438,-0.32593 -5.078031,-0.79949 -1.619417,-0.45823 -3.207264,-1.09332 -4.781111,-1.85988 -3.080495,-1.50038 -5.977061,-3.43699 -8.873643,-5.39508 -3.678515,-2.56538 -7.317324,-5.23051 -10.71003,-8.15412 -3.330285,-2.86982 -6.341574,-5.91901 -8.915095,-9.29181 -0.105447,-0.1382 -0.210083,-0.27684 -0.313905,-0.41594 -1.252087,-1.67147 -2.279458,-3.4833 -2.95668,-5.36413 -0.690204,-1.91689 -1.029084,-3.93883 -0.847884,-5.99608 0.05729,-0.47677 0.08377,-0.9702 0.112846,-1.4656 0.02858,-0.4869 0.06001,-0.98289 0.126843,-1.4629 0.06502,-0.46695 0.164511,-0.92684 0.331904,-1.35813 0.160492,-0.4135 0.386424,-0.80893 0.715148,-1.16454 0.626283,-0.57033 1.328237,-1.04603 2.099656,-1.44576 0.741529,-0.38424 1.540706,-0.69502 2.392971,-0.95439 0.315955,-0.0961 0.638033,-0.18489 0.966183,-0.26764 1.343932,-0.3389 2.687459,-0.55491 4.154334,-0.79562 2.793814,-0.47097 5.704769,-0.42565 8.705279,0.0686 2.81614,0.46386 5.637251,1.31088 8.415216,2.42163 4.914234,2.00377 9.66298,5.00877 13.587256,8.90664 3.82758,3.80182 6.850923,8.4365 8.425523,13.74064 1.028684,4.17729 1.823955,8.44792 1.560008,12.70619 -0.05541,0.7022 -0.164572,1.44252 -0.342398,2.16776 -0.180088,0.73447 -0.428855,1.44646 -0.759375,2.09115 -0.33587,0.65512 -0.752431,1.23358 -1.260602,1.69777 -0.515063,0.47048 -1.123669,0.8232 -1.840309,1.02293 -0.93684,0.17523 -1.856931,0.17977 -2.749319,0.064 -0.924285,-0.11988 -1.824111,-0.36955 -2.685966,-0.69739 -1.563747,-0.59484 -3.036004,-1.46083 -4.318011,-2.31283 -0.214449,-0.14252 -0.425919,-0.28622 -0.634164,-0.4302 -3.255815,-2.39437 -6.187963,-5.207 -8.641231,-8.32354 -2.525988,-3.20891 -4.530262,-6.72112 -5.890738,-10.4354 -0.948605,-2.60299 -1.428849,-5.44482 -1.249655,-8.14491 0.09253,-1.39432 0.360054,-2.74473 0.822906,-4.01076 0.474247,-1.2972 1.151524,-2.50049 2.050407,-3.57371 1.519533,-1.33744 3.368901,-2.11098 5.228646,-2.45326 2.018022,-0.37142 4.057118,-0.24066 5.850484,0.22227 0.437089,0.11788 0.868636,0.2452 1.294058,0.38116 6.685755,2.13664 11.971096,6.40241 15.517577,10.83871 2.04038,2.50594 3.365525,5.40057 3.977645,8.21417 0.110279,0.5069 0.197919,1.0126 0.263173,1.51546 0.138507,1.06736 0.17114,2.08155 0.122167,3.03129 -0.08222,1.59453 -0.398828,3.09966 -0.919402,4.49108 -0.478659,1.42519 -1.386869,2.87035 -2.772865,4.03629 -0.305014,0.25658 -0.634442,0.50005 -0.987229,0.72449 -0.82943,0.52767 -1.780354,0.9449 -2.815446,1.17389 -0.977815,0.21633 -2.015852,0.26097 -3.067906,0.0797 -1.475194,-0.23183 -2.858316,-0.71495 -4.136065,-1.39036 -1.301727,-0.68809 -2.475168,-1.56565 -3.512409,-2.55239 -0.902694,-0.85875 -1.694246,-1.79241 -2.377925,-2.74681 -0.987195,-1.3781 -1.825973,-2.90019 -2.468232,-4.49528 -1.033753,-2.43808 -1.56492,-5.00984 -1.49727,-7.34012 0.03779,-1.30182 0.257588,-2.41522 0.57379,-3.34182 0.03679,-0.10782 0.07471,-0.21228 0.113498,-0.31344 0.51001,-1.3303 1.267108,-2.33015 2.033285,-3.13028 0.111002,-0.12418 0.224647,-0.24618 0.34324,-0.36824 0.49575,-0.51027 1.075671,-1.02099 1.695573,-1.41294 0.307821,-0.19463 0.703579,-0.41239 1.203923,-0.6159 0.352796,-0.14349 0.775048,-0.28912 1.271045,-0.41703 1.424787,-0.36743 3.235772,-0.52918 5.431214,-0.30125 1.570826,0.20119 3.039798,0.28055 4.853053,0.39641 1.5651,0.10001 3.215492,0.22015 4.838464,0.49901 1.157451,0.20479 2.22988,0.61514 3.206013,1.18244 0.984505,0.57216 1.864321,1.3 2.631325,2.12717 1.618829,1.7458 2.69956,3.88934 3.271708,5.9427 0.816514,2.82939 1.010732,5.55723 0.758323,7.88493 -0.06271,0.57828 -0.15168,1.12375 -0.26107,1.63645 -0.170594,0.79956 -0.393518,1.52891 -0.65188,2.19127 -0.523579,1.3423 -1.211576,2.45884 -1.983325,3.38301 -0.556417,0.65967 -1.210669,1.1495 -1.906577,1.50347 -0.65121,0.33124 -1.412616,0.58066 -2.277427,0.70722 -0.862622,0.12624 -1.910443,0.1405 -3.069617,-0.0747 -0.541022,-0.10044 -1.121413,-0.25428 -1.712091,-0.47882 -2.698085,-0.98483 -5.419655,-2.54249 -8.21349,-4.84806 -2.35116,-1.94026 -4.557592,-4.24472 -6.755803,-6.87184 -1.89771,-2.38888 -3.812851,-5.06315 -5.348878,-7.95623 -1.469344,-2.76748 -2.604402,-5.75602 -3.074053,-8.95843 -0.07949,-0.66185 -0.11125,-1.37481 -0.07239,-2.0916 0.03892,-0.71794 0.148319,-1.43284 0.347455,-2.1004 0.200144,-0.67094 0.488448,-1.28586 0.879834,-1.8086 0.392704,-0.52449 0.889581,-0.95696 1.510277,-1.26473 0.784872,-0.32397 1.594545,-0.47128 2.401846,-0.48339 0.835057,-0.0125 1.669116,0.11955 2.472407,0.35237 1.713473,0.49662 3.270414,1.44378 4.461733,2.44194 2.535294,2.26557 4.224067,5.00502 5.376392,7.54594 1.556193,3.43146 2.293271,6.87167 2.662413,9.01363 a 0.36015303,0.36015303 90 0 0 0.709842,-0.12234 z"
       id="path-1"
       inkscape:path-effect="#path-effect881;#path-effect883"
       inkscape:original-d="m 81.599225,227.23491 c -1.175633,-7.64352 -5.910414,-19.34191 -15.325214,-19.69012 -1.495847,-0.0553 -3.246385,0.5488 -4.133778,1.75427 -8.394324,11.40316 22.502806,47.19896 32.297238,32.54464 4.123194,-6.16908 2.424757,-18.20979 -4.402636,-22.23077 -3.071187,-1.80876 -6.038095,-1.56748 -9.477455,-1.845 -3.680646,-0.29699 -8.301544,-1.14406 -11.661948,0.99811 -8.388096,5.34718 -4.071582,18.18357 1.781215,23.41037 8.963457,8.00476 18.913249,2.7223 18.148289,-9.04354 -0.593107,-9.12259 -9.171729,-16.83193 -17.005609,-20.32528 -5.007444,-2.23297 -9.890532,-2.9535 -14.72028,0.15122 -1.117068,0.71809 -2.386723,3.14829 -2.789459,4.29493 -4.104028,11.68476 7.563573,26.73554 17.005609,32.36318 2.404319,1.43302 7.93505,3.87905 10.75454,0.81662 3.609535,-3.92054 2.026071,-11.79687 1.310719,-15.78837 -2.850449,-15.90484 -19.352904,-27.43205 -34.683403,-28.52194 -2.644364,-0.18799 -15.295924,0.79626 -16.098201,5.65601 -0.463094,2.80517 -0.735073,5.7741 -0.0336,8.52935 2.67443,10.50464 19.937371,22.72914 28.533137,28.00774 5.783483,3.55161 14.695077,7.27429 21.004967,2.51042 1.932145,-1.45874 3.254428,-3.81894 3.831303,-6.17017 4.812096,-19.61324 -38.055443,-43.59654 -52.361163,-32.72611 -14.054641,10.67963 15.43627,36.07529 21.811539,40.71103 6.119116,4.44949 15.051115,12.291 22.75258,4.4764 5.169521,-5.24546 1.329267,-22.56601 0.201639,-25.76955 -2.632737,-7.47948 -8.924942,-16.89468 -17.341685,-19.38765 -11.931125,-3.53389 -20.513742,-2.84215 -31.658687,1.78452 -2.253332,0.93543 -5.00997,2.14272 -5.814174,4.44616 -0.758646,2.17294 1.299513,4.41591 1.949269,6.62386"
       style="fill:#000000;fill-rule:nonzero;stroke:none;stroke-width:1px;stroke-linecap:butt;stroke-linejoin:miter;stroke-opacity:1" />
  </g>
</svg>
