<?xml version="1.0" encoding="UTF-8" standalone="no"?>
<!-- Created with Inkscape (http://www.inkscape.org/) -->

<svg
   xmlns:dc="http://purl.org/dc/elements/1.1/"
   xmlns:cc="http://creativecommons.org/ns#"
   xmlns:rdf="http://www.w3.org/1999/02/22-rdf-syntax-ns#"
   xmlns:svg="http://www.w3.org/2000/svg"
   xmlns="http://www.w3.org/2000/svg"
   xmlns:sodipodi="http://sodipodi.sourceforge.net/DTD/sodipodi-0.dtd"
   xmlns:inkscape="http://www.inkscape.org/namespaces/inkscape"
   width="240mm"
   height="120mm"
   viewBox="0 0 240 120"
   version="1.1"
   id="svg8"
   inkscape:version="0.92.5 (2060ec1f9f, 2020-04-08)"
   sodipodi:docname="hello.svg">
  <defs
     id="defs2" />
  <sodipodi:namedview
     id="base"
     pagecolor="#ffffff"
     bordercolor="#666666"
     borderopacity="1.0"
     inkscape:pageopacity="0.0"
     inkscape:pageshadow="2"
     inkscape:zoom="0.99437388"
     inkscape:cx="88.172969"
     inkscape:cy="182.72055"
     inkscape:document-units="mm"
     inkscape:current-layer="layer1"
     showgrid="false"
     showborder="true"
     width="200mm"
     showguides="true"
     inkscape:guide-bbox="true"
     inkscape:window-width="1848"
     inkscape:window-height="1023"
     inkscape:window-x="72"
     inkscape:window-y="27"
     inkscape:window-maximized="1">
    <inkscape:grid
       type="xygrid"
       id="grid815"
       units="mm"
       spacingx="10"
       spacingy="10"
       empspacing="4"
       dotted="false" />
  </sodipodi:namedview>
  <metadata
     id="metadata5">
    <rdf:RDF>
      <cc:Work
         rdf:about="">
        <dc:format>image/svg+xml</dc:format>
        <dc:type
           rdf:resource="http://purl.org/dc/dcmitype/StillImage" />
        <dc:title />
      </cc:Work>
    </rdf:RDF>
  </metadata>
  <g
     inkscape:label="Layer 1"
     inkscape:groupmode="layer"
     id="layer1"
     transform="translate(0,-177)">
    <path
       style="fill:#ffff00;fill-opacity:1;stroke:#000000;stroke-width:0.46499997;stroke-miterlimit:4;stroke-dasharray:none;stroke-dashoffset:0;stroke-opacity:1"
       id="path816"
       d="m 45.090614,216.81785 c -0.326417,0.71498 -0.485854,1.47973 -0.699855,2.23018 -0.243742,0.68998 -0.456602,1.39179 -0.644252,2.09908 -0.113723,0.79309 -0.347364,1.55837 -0.527288,2.33742 -0.211971,0.72813 -0.364067,1.46346 -0.437283,2.21799 -0.214772,0.9162 -0.360965,1.84622 -0.55232,2.76698 -0.264221,0.86314 -0.424823,1.74386 -0.512051,2.64067 -0.04893,0.85701 -0.03827,1.70469 -0.201665,2.54971 -0.203065,0.82938 -0.300075,1.67489 -0.355341,2.52509 0.04394,0.79925 -0.1613,1.55571 -0.33946,2.32449 -0.164693,0.75805 -0.20011,1.53446 -0.220835,2.30734 -0.01585,0.82031 -0.01386,1.64092 -0.01045,2.46136 0.0019,0.80094 7.94e-4,1.60189 0.0031,2.40283 -0.0029,0.8628 -0.0054,1.72559 -0.0024,2.58839 0.03278,0.8331 -0.01847,1.65849 -0.108413,2.48586 -0.05648,0.54573 -0.01527,0.27126 -0.125643,0.82311 0,0 -3.530566,1.69374 -3.530566,1.69374 v 0 c 0.147133,-0.50059 0.09676,-0.24162 0.146331,-0.77785 0.09528,-0.81526 0.175384,-1.62609 0.13262,-2.44882 0.003,-0.86183 5.29e-4,-1.72365 -0.0029,-2.58548 0.0016,-0.80098 -7.94e-4,-1.60196 -0.0021,-2.40293 0.0011,-0.82385 -0.0034,-1.64774 0.0079,-2.47155 0.01789,-0.79252 0.03064,-1.58977 0.182251,-2.37075 0.153577,-0.75971 0.437993,-1.4854 0.375597,-2.2743 0.04385,-0.86677 0.122531,-1.73204 0.329141,-2.5775 0.03718,-0.16278 0.153861,-0.64903 0.170358,-0.81821 0.0545,-0.55898 -0.02498,-1.13211 0.05454,-1.69092 0.07284,-0.91376 0.198252,-1.82397 0.496295,-2.69531 0.236403,-0.8893 0.271952,-1.82616 0.55953,-2.70816 0.06175,-0.76889 0.157025,-1.53299 0.41995,-2.26373 0.158517,-0.78688 0.440264,-1.54077 0.508897,-2.34351 0.172796,-0.72124 0.39874,-1.42938 0.639471,-2.13033 0.280511,-0.71346 0.312531,-1.51198 0.680439,-2.20104 0,0 3.566354,-1.69385 3.566354,-1.69385 z"
       inkscape:connector-curvature="0" />
    <path
       style="fill:#ffff00;fill-opacity:1;stroke:#000000;stroke-width:0.46499997;stroke-miterlimit:4;stroke-dasharray:none;stroke-dashoffset:0;stroke-opacity:1"
       id="path818"
       d="m 36.144893,240.49447 c 0.802121,0.0167 1.604494,0.0101 2.406734,0.0106 0.572463,-0.0354 1.154946,0.0478 1.726475,0.002 0.163775,-0.0133 0.885611,-0.14472 1.037342,-0.1715 1.17217,-0.22098 2.366073,-0.28466 3.555997,-0.32201 1.46816,-0.0585 2.939047,0.0405 4.402317,-0.0983 1.68039,-0.24408 3.38259,-0.26034 5.064813,-0.47168 1.728772,-0.19909 3.424846,-0.58856 5.153266,-0.79042 1.777473,-0.29602 3.54249,-0.67255 5.29195,-1.10515 1.709536,-0.32151 3.393014,-0.74464 5.071811,-1.19622 1.562563,-0.3173 3.111878,-0.69426 4.69052,-0.92829 0.744458,-0.18533 1.513726,-0.2661 2.260364,-0.43818 0.66157,-0.15248 1.311008,-0.35326 1.975599,-0.49979 1.30706,-0.20693 2.598491,-0.48928 3.907668,-0.68595 1.046798,-0.13303 2.057204,-0.4481 3.099634,-0.62219 0,0 -3.123594,2.35269 -3.123594,2.35269 v 0 c -1.026967,0.18609 -2.031757,0.48522 -3.072379,0.59178 -1.301568,0.20299 -2.59003,0.48025 -3.887634,0.70534 -1.408303,0.32857 -2.808801,0.6837 -4.239834,0.90705 -1.56342,0.25089 -3.108008,0.61155 -4.653381,0.95237 -1.679284,0.44692 -3.370439,0.83354 -5.072308,1.18445 -1.757476,0.41183 -3.522499,0.8031 -5.309248,1.06585 -1.725975,0.23901 -3.430956,0.60589 -5.164593,0.79318 -1.691301,0.17879 -3.393532,0.24859 -5.081738,0.46692 -1.477404,0.0937 -2.95832,0.042 -4.43738,0.10545 -1.186924,0.0577 -2.373035,0.1414 -3.541554,0.37041 -0.937479,0.14177 -1.873173,0.15474 -2.820328,0.13304 -0.811991,5.3e-4 -1.624108,-0.006 -2.43599,0.0106 0,0 3.195471,-2.32165 3.195471,-2.32165 z"
       inkscape:connector-curvature="0" />
    <path
       style="fill:#ffff00;fill-opacity:1;stroke:#000000;stroke-width:0.46499997;stroke-miterlimit:4;stroke-dasharray:none;stroke-dashoffset:0;stroke-opacity:1"
       id="path820"
       d="m 80.499962,199.23203 c -0.278034,0.83448 -0.517236,1.68084 -0.798814,2.5147 -0.30857,0.90055 -0.459121,1.84309 -0.702394,2.76044 -0.30607,1.10204 -0.548897,2.22173 -0.805821,3.33691 -0.252759,1.32779 -0.578696,2.64114 -0.88475,3.95773 -0.393192,1.62763 -0.669052,3.27526 -0.970609,4.92081 -0.331395,1.80873 -0.739105,3.60275 -1.131099,5.39917 -0.448516,1.88763 -0.888513,3.78013 -1.236744,5.68921 -0.282662,1.93269 -0.609074,3.85871 -0.947574,5.78236 -0.324617,1.84501 -0.611568,3.69757 -0.941496,5.54156 -0.271782,1.5923 -0.54384,3.18308 -0.825645,4.77379 -0.257286,1.33763 -0.239747,2.70375 -0.389948,4.05176 -0.202978,1.231 -0.343101,2.46952 -0.428821,3.71377 -0.174569,1.21763 -0.388853,2.42471 -0.493694,3.65139 -0.106833,1.15752 -0.03997,2.32368 -0.151003,3.47933 0,0 -3.483941,1.72348 -3.483941,1.72348 v 0 c 0.164862,-1.14921 0.04127,-2.31682 0.167849,-3.47183 0.09635,-1.22521 0.267346,-2.43487 0.496076,-3.64225 0.05944,-1.25511 0.2268,-2.49836 0.419756,-3.73954 0.198194,-1.35131 0.130148,-2.73318 0.406442,-4.07813 0.128691,-0.77001 0.310938,-1.53041 0.43533,-2.30059 0.133715,-0.8279 0.209724,-1.66653 0.401177,-2.48542 0.173778,-0.87341 0.288568,-1.75183 0.449723,-2.6276 0.117279,-0.63733 0.262773,-1.26939 0.37248,-1.90807 0.05776,-0.33625 0.09776,-0.67531 0.146637,-1.01297 0.329835,-1.92471 0.666962,-3.84884 0.943245,-5.78163 0.328872,-1.91434 0.780772,-3.80638 1.222211,-5.6973 0.377055,-1.79454 0.811742,-3.57809 1.125942,-5.38506 0.159989,-0.84986 0.269209,-1.70728 0.435563,-2.55577 0.34154,-1.74201 0.0079,0.10325 0.36586,-1.58012 0.05569,-0.26192 0.09537,-0.52699 0.143055,-0.79048 0.299165,-1.31167 0.605457,-2.62273 0.863209,-3.94178 0.11965,-0.58894 0.299267,-1.1596 0.42191,-1.74692 0.169743,-0.81287 0.01574,-0.35367 0.210494,-1.13745 0.03903,-0.15705 0.0923,-0.31021 0.138451,-0.46531 0.287065,-0.90966 0.388131,-1.8705 0.698617,-2.77583 0.0998,-0.30366 0.219768,-0.60069 0.312285,-0.90664 0.153537,-0.50776 0.224898,-1.04556 0.472016,-1.52284 0,0 3.544025,-1.74288 3.544025,-1.74288 z"
       inkscape:connector-curvature="0" />
    <path
       style="fill:#ffff00;fill-opacity:1;stroke:#000000;stroke-width:0.46499997;stroke-miterlimit:4;stroke-dasharray:none;stroke-dashoffset:0;stroke-opacity:1"
       id="path822"
       d="m 90.407486,264.85249 c 0.574585,-0.62364 1.133605,-1.26164 1.745541,-1.84932 0.645568,-0.59491 1.368261,-1.08933 2.028981,-1.66621 0.702194,-0.54132 1.433748,-1.0438 2.14245,-1.57721 0.841614,-0.57353 1.572454,-1.28242 2.4115,-1.85929 0.923642,-0.54798 1.792692,-1.1657 2.637782,-1.82575 0.93901,-0.7111 1.83997,-1.46765 2.7854,-2.17051 1.07189,-0.67465 2.08762,-1.41838 3.05327,-2.23714 0.96261,-0.89897 1.9426,-1.78257 2.96098,-2.61809 0.87578,-0.6393 1.76128,-1.26066 2.4902,-2.06784 0.7003,-0.75466 1.38491,-1.52377 2.07179,-2.29082 0.59931,-0.58642 1.14385,-1.22148 1.57706,-1.94049 0.17267,-0.42054 0.4753,-0.84727 0.43892,-1.31926 -0.19029,-0.27932 -0.59357,-0.17526 -0.86796,-0.11045 -0.0457,-0.0913 -0.67602,0.28151 -0.62864,0.25466 5.46364,-3.09611 3.66759,-2.1493 2.49979,-1.36586 -10.13875,5.85973 -0.41796,0.27011 -0.63495,0.39154 -1.23367,0.6904 -2.46155,1.39135 -3.68086,2.10683 -1.01413,0.59507 2.03794,-1.17367 3.06529,-1.74562 0.18768,-0.10449 -0.34766,0.25282 -0.51362,0.38921 -0.61084,0.55343 -1.22664,1.09792 -1.80962,1.68128 -0.5254,0.59286 -1.07304,1.16367 -1.55256,1.79515 -0.55712,0.74616 -1.20231,1.41591 -1.74826,2.17178 -0.4852,0.88027 -1.05779,1.7076 -1.55061,2.58323 -0.40981,0.81804 -0.76603,1.65922 -1.11663,2.50376 -0.30912,0.90618 -0.62423,1.8131 -0.84807,2.74504 -0.18848,0.91396 -0.34812,1.8317 -0.43912,2.7606 -0.0735,0.84392 -0.0781,1.69158 -0.084,2.53802 -0.003,0.83027 0.003,1.66052 0.004,2.49078 -0.0288,0.8735 0.33512,1.58585 0.75723,2.32034 0.464,0.78257 1.05099,1.51538 1.69549,2.15859 0.66133,0.55267 1.35107,1.08802 2.0746,1.56035 0.72582,0.4748 1.57153,0.68361 2.37706,0.98074 0.74146,0.26136 1.51903,0.34292 2.29847,0.38384 0.77112,0.0271 1.54293,0.0228 2.31438,0.0184 0.68924,0.0157 1.30204,0.008 1.98071,-0.10753 0.29459,-0.16731 0.61525,-0.26793 0.91215,-0.43163 0.10808,-0.0596 0.42469,-0.25164 0.31744,-0.19057 -3.0565,1.74045 -4.0081,2.40376 -2.72547,1.52608 0.66886,-0.49792 1.20811,-1.11562 1.66628,-1.80631 0.40883,-0.68251 0.77669,-1.38185 1.07463,-2.11953 0.21344,-0.77812 0.48202,-1.54113 0.68544,-2.32236 0.14678,-0.74939 0.32876,-1.48901 0.4204,-2.24782 0.0809,-0.78643 0.0839,-1.5777 0.0919,-2.36737 0.002,-0.78693 -0.006,-1.57383 -0.006,-2.36074 0.0111,-0.81426 -0.12151,-1.62124 -0.18296,-2.4319 -0.17379,-0.70422 -0.35644,-1.40826 -0.57209,-2.1015 -0.17215,-0.77877 -0.35686,-1.55648 -0.64187,-2.30302 -0.28457,-0.83472 -0.66554,-1.62817 -1.02409,-2.43176 -0.28866,-0.85911 -0.72525,-1.6282 -1.23123,-2.37398 -0.55408,-0.76692 -1.09929,-1.54653 -1.70636,-2.27468 -0.52148,-0.71255 -1.17711,-1.28717 -1.89704,-1.78938 -0.34301,-0.27485 -0.64746,-0.6255 -1.02126,-0.86206 -0.15876,-0.10047 -0.3326,-0.17521 -0.49439,-0.27074 -0.48536,-0.28103 -1.04369,-0.31548 -1.5905,-0.34848 -0.24731,-0.0179 -0.52389,-7.9e-4 -0.75928,0.0904 -0.0649,0.0252 -0.24013,0.14077 -0.17951,0.10659 3.23298,-1.82284 4.21823,-2.51864 3.02134,-1.68395 -0.30832,0.46434 -0.55846,0.98951 -0.75043,1.51543 -0.19595,0.82251 -0.23819,1.66549 -0.39634,2.49662 -0.21165,1.01569 -0.30263,2.04778 -0.36369,3.08147 -0.053,1.23074 -0.0431,2.46273 -0.0489,3.69422 -0.0607,1.40526 0.14106,2.79769 0.30917,4.18873 0.21006,1.45894 0.57664,2.88529 0.8707,4.32727 0.29069,0.93827 0.42248,1.92015 0.71098,2.85822 0.13431,0.43668 0.31953,0.8741 0.48954,1.29776 0.46487,1.17318 0.90823,2.35885 1.56178,3.44174 0.73609,1.08667 1.466,2.17891 2.27595,3.21275 0.79014,0.95783 1.67436,1.84054 2.62026,2.644 0.63424,0.59607 1.34871,1.03954 2.12146,1.42455 0.55591,0.27869 1.11362,0.35118 1.70794,0.16895 1.20556,-0.46646 3.25425,-1.72343 -2.58986,1.52137 -0.23061,0.12804 0.38501,-0.25777 0.66442,-0.55461 0.36476,-0.52075 0.69487,-1.06676 1.00046,-1.62413 0.23858,-0.6592 0.53628,-1.29894 0.76296,-1.9629 0.26846,-0.73063 0.34707,-1.50596 0.59475,-2.24166 0.25548,-0.72158 0.39699,-1.4793 0.53957,-2.22997 0.15756,-0.86762 0.37478,-1.73087 0.61526,-2.58 0.30083,-0.81116 0.48259,-1.64835 0.57413,-2.50644 0.0756,-0.85421 0.0703,-1.71258 0.0729,-2.56929 0.001,-0.87186 -0.003,-1.74372 -0.003,-2.61558 -0.003,-0.86298 -0.003,-1.72597 -5.3e-4,-2.58896 -7.9e-4,-0.88386 -0.002,-1.76773 5.3e-4,-2.65159 -0.005,-0.9389 0.002,-1.87772 0.007,-2.81658 -0.12524,-1.11215 -0.32923,-2.20831 -0.42353,-3.32477 -0.17291,-1.00307 -0.41461,-1.99034 -0.54359,-3.00092 -0.21401,-0.8787 -0.3894,-1.76365 -0.5596,-2.65157 -0.17876,-0.76817 -0.20026,-1.55458 -0.44815,-2.30478 -0.20058,-0.66508 -0.35767,-1.34356 -0.50721,-2.0221 -0.24389,-0.55528 -0.44617,-1.13167 -0.73741,-1.66453 -0.28291,-0.37291 -0.51925,-0.44975 -0.84466,-0.10123 6.62587,-3.58799 3.46561,-2.41249 2.68327,-1.32044 -0.16815,0.23471 -0.19513,0.32229 -0.32264,0.58793 -0.28056,0.75337 -0.64849,1.46952 -0.90615,2.23117 -0.1854,0.8399 -0.40785,1.6704 -0.63049,2.50171 -0.25808,0.83712 -0.36815,1.70213 -0.43025,2.57237 0.0264,1.00261 -0.13398,1.97698 -0.28925,2.96279 -0.16932,1.15802 -0.23196,2.32686 -0.26894,3.49535 -0.0323,0.91876 -0.0512,1.82495 0.11617,2.73053 0.15172,0.91316 0.42576,1.79693 0.6912,2.68202 0.23021,0.93486 0.47863,1.85961 0.95763,2.69989 0.43755,0.84314 0.93115,1.65175 1.4557,2.44398 0.45939,0.64339 0.93275,1.29528 1.45939,1.88686 0.45808,0.49048 0.96043,0.94339 1.45102,1.40494 0.4098,0.38894 0.82286,0.79571 1.31769,1.07732 0.7627,0.43406 -0.0631,-0.10592 0.67253,0.39412 0.46052,0.33632 0.99808,0.53368 1.5343,0.71088 0.51084,0.14635 1.04355,0.1686 1.57126,0.18441 0.5289,-0.0127 1.06777,0.0597 1.58849,-0.0462 0.60153,-0.10897 1.21008,-0.16445 1.81993,-0.1968 0.60619,0.01 1.19743,-0.12776 1.79669,-0.20196 0.19609,-0.0437 0.40018,-0.018 0.59719,-0.0513 1.23378,-0.20854 4.23351,-2.23899 -2.50818,1.57025 0.47484,-0.24553 0.65342,-0.67225 0.80322,-1.15428 0.076,0.004 0.15067,-0.72444 0.19841,-0.74686 3.65152,-1.71484 3.43073,-2.88968 3.62173,-1.36866 0.0352,0.59476 0.0218,1.1916 0.0154,1.7871 -0.004,0.77228 -0.0116,1.54454 -0.0118,2.31683 0.0257,0.8137 -0.0596,1.63538 0.0493,2.44358 0.16705,0.80871 0.33963,1.62414 0.6144,2.40379 0.18365,0.49977 0.44258,1.08687 1.04156,1.12962 0.0599,-0.007 0.1227,-7.9e-4 0.17979,-0.0202 0.11519,-0.0392 0.39192,-0.28656 0.28556,-0.22743 -5.3963,3.00031 -3.78317,2.31785 -2.64026,1.43625 0.54342,-0.37713 0.96646,-0.8827 1.40527,-1.36958 0.46261,-0.52359 0.94686,-1.02436 1.46701,-1.49075 0.44865,-0.44227 0.9283,-0.84384 1.29259,-1.36067 0.42693,-0.51989 0.76013,-1.09 1.05968,-1.6898 0.3259,-0.61666 0.42997,-1.30023 0.49343,-1.98527 0.0537,-0.71485 0.0443,-1.43228 0.0461,-2.14857 -0.002,-0.75647 -0.001,-1.51293 -0.005,-2.2694 0.0549,-0.67896 -0.12739,-1.32026 -0.29602,-1.96755 -0.17708,-0.49899 -0.361,-1.00781 -0.72828,-1.39871 -0.40976,-0.32215 -0.92644,-0.36002 -1.42714,-0.38954 -0.33131,-0.0113 -0.68794,-0.0303 -1.00439,0.0943 -0.17864,0.0704 -0.33322,0.19107 -0.50377,0.27922 6.89653,-3.9303 1.20339,-0.6959 -0.49516,0.31741 -1.02173,0.60954 2.06129,-1.1887 3.09194,-1.78305 -1.21471,0.69547 -2.43854,1.37524 -3.64412,2.08641 -1.02884,0.6069 2.06927,-1.19415 3.11382,-1.77359 0.0949,-0.0526 -0.17521,0.12803 -0.26282,0.19204 -0.53815,0.38529 -1.05474,0.79516 -1.53426,1.25142 -0.48096,0.41563 -0.82557,0.94146 -1.16922,1.46804 -0.18439,0.27168 -0.27644,0.57717 -0.34637,0.89344 0,0 -3.54575,1.72839 -3.54575,1.72839 v 0 c 0.0503,-0.3567 0.11379,-0.71076 0.28843,-1.03164 0.3305,-0.55613 0.68302,-1.10294 1.13665,-1.5688 0.49579,-0.44499 0.96552,-0.91542 1.51221,-1.30135 1.25658,-0.82848 2.63333,-1.46785 3.87219,-2.32261 0.98008,-0.6762 -4.1228,2.38479 -3.09047,1.79143 1.21445,-0.69804 2.41882,-1.41362 3.63682,-2.10545 0.48932,-0.27794 -9.72469,5.63954 0.51413,-0.29389 0.53096,-0.23081 1.06487,-0.28958 1.63973,-0.20863 0.5867,0.0732 1.15358,0.20908 1.58918,0.6391 0.38455,0.45709 0.62979,0.99703 0.8154,1.56301 0.17064,0.67774 0.38089,1.34891 0.33235,2.05917 -0.002,0.7565 0.002,1.51298 0.005,2.26947 0.004,0.72534 0.006,1.45121 -0.0253,2.17602 -0.056,0.72218 -0.13551,1.45015 -0.4278,2.12136 -0.30887,0.59993 -0.55533,1.24341 -1.04726,1.72439 -0.16336,0.28905 -0.32916,0.60439 -0.57885,0.83186 -0.0713,0.065 -0.16507,0.102 -0.23665,0.1667 -0.15487,0.13997 -0.2499,0.34041 -0.44028,0.44536 -0.66336,0.71138 0.19614,-0.17758 -0.5081,0.4499 -0.34971,0.31159 -0.65131,0.68261 -0.96379,1.03066 -0.47293,0.46055 -0.83356,1.03996 -1.38565,1.41353 -1.34528,1.1528 -2.91919,2.80118 -4.73023,2.51113 -0.63524,-0.28566 -0.99266,-0.81009 -1.20581,-1.46574 -0.29607,-0.79749 -0.45638,-1.64141 -0.65083,-2.46846 -0.14889,-0.82367 -0.0491,-1.66541 -0.0767,-2.49953 0.002,-0.77077 -0.004,-1.54154 0,-2.31231 -0.001,-0.57904 0.008,-1.15854 -0.0189,-1.73717 -0.11899,-1.51333 -0.0685,-0.16176 3.50898,-2.09141 0.0215,-0.0116 -0.0475,0.0207 -0.0603,0.0415 -0.11943,0.19367 -0.10969,0.44982 -0.19969,0.65428 -0.16754,0.50854 -0.2408,1.05226 -0.68619,1.41196 -2.77208,1.57844 -2.74551,2.05562 -4.92369,2.25681 -0.6032,0.0841 -1.20425,0.18042 -1.81521,0.18274 -0.60668,0.0451 -1.20877,0.12439 -1.80989,0.21754 -0.54184,0.026 -1.08498,0.0123 -1.62693,-0.007 -0.55537,-0.0337 -1.11301,-0.0892 -1.64007,-0.28012 -0.5513,-0.21234 -1.09805,-0.4331 -1.56837,-0.80139 -0.71529,-0.45897 -1.43765,-0.89539 -2.02354,-1.52676 -0.50558,-0.46459 -1.02572,-0.92141 -1.47714,-1.43855 -0.52187,-0.61726 -1.00878,-1.27388 -1.4667,-1.93868 -0.53889,-0.79419 -1.0125,-1.62536 -1.46026,-2.47305 -0.49759,-0.86445 -0.7903,-1.80162 -1.00896,-2.77223 -0.27378,-0.89578 -0.55651,-1.7914 -0.71185,-2.71625 -0.0406,-0.19985 -0.15426,-0.72932 -0.17058,-0.93259 -0.05,-0.62232 0.0444,-1.25715 0.0241,-1.88022 0.0369,-1.18427 0.1142,-2.36771 0.27007,-3.54286 0.0651,-0.52731 0.18933,-1.06116 0.23856,-1.58884 0.041,-0.43984 -0.0183,-0.89013 0.0296,-1.33036 0.0498,-0.8937 0.14123,-1.78559 0.39772,-2.64733 0.24083,-0.82804 0.45759,-1.66353 0.61581,-2.51054 0.23446,-0.78003 0.60214,-1.49628 0.88608,-2.25776 0.15778,-0.44612 0.34348,-1.00364 0.77011,-1.26297 1.17055,-0.71152 2.34571,-1.41543 3.51856,-2.12314 0.51303,-0.0922 0.90112,0.19653 1.17463,0.61883 0.3003,0.57006 0.51909,1.17848 0.78298,1.76582 0.1381,0.66709 0.29863,1.33129 0.48514,1.98599 0.0675,0.20552 0.17931,0.5245 0.2174,0.73374 0.0975,0.53536 0.0857,1.0941 0.23916,1.6217 0.18069,0.8951 0.31732,1.79879 0.57167,2.67842 0.11393,1.01982 0.33145,2.0193 0.52515,3.02612 0.0939,1.12473 0.28732,2.23252 0.44791,3.34882 0.005,0.93639 0.0126,1.87274 0.007,2.80915 0.002,0.88369 0.001,1.76739 5.3e-4,2.65108 0.002,0.86257 0.002,1.72514 0.002,2.58771 0.002,0.87177 0.003,1.74355 0.006,2.61532 5.2e-4,0.86802 -0.001,1.73699 -0.0557,2.60362 -0.0819,0.88057 -0.21711,1.75257 -0.54717,2.57978 -0.1468,0.44002 -0.22602,0.87933 -0.34036,1.32802 -0.069,0.27081 -0.17247,0.53265 -0.23136,0.80584 -0.0282,0.13086 -0.0363,0.26526 -0.0545,0.39789 -0.12613,0.76926 -0.28497,1.53972 -0.5018,2.28784 -0.0331,0.084 -0.23525,0.58949 -0.25542,0.67159 -0.1258,0.51199 -0.1314,1.05999 -0.34422,1.55294 -0.20168,0.69585 -0.55137,1.32207 -0.74076,2.0209 -0.26643,0.58743 -0.62657,1.12828 -0.96334,1.67652 -0.16091,0.28861 -0.32555,0.50784 -0.61677,0.68137 -1.22734,0.73138 -2.65189,1.96329 -4.21135,2.29127 -0.66028,0.0574 -1.26394,-0.0598 -1.84674,-0.38837 -0.78516,-0.41011 -1.49232,-0.92458 -2.14726,-1.52289 -0.93736,-0.84553 -1.83061,-1.74539 -2.63435,-2.71989 -0.82186,-1.04497 -1.55951,-2.15087 -2.29901,-3.25458 -0.66242,-1.10234 -1.15514,-2.29063 -1.59451,-3.49763 -0.12277,-0.31895 -0.40156,-1.02974 -0.4998,-1.34292 -0.29607,-0.94382 -0.42279,-1.93418 -0.72046,-2.87835 -0.29698,-1.45194 -0.66169,-2.88842 -0.89333,-4.35393 -0.14889,-1.40544 -0.40563,-2.80451 -0.33847,-4.22272 -0.006,-1.23333 -0.005,-2.46708 0.0213,-3.70016 0.0343,-1.05052 0.1393,-2.09632 0.33819,-3.12937 0.0591,-0.32084 0.13604,-0.63899 0.17578,-0.9628 0.0635,-0.51755 0.0349,-1.04885 0.16815,-1.55875 0.0812,-0.31152 0.17074,-0.61248 0.33064,-0.89499 0.0423,-0.0747 0.10874,-0.13521 0.14455,-0.21327 0.0811,-0.17687 0.0744,-0.3873 0.19395,-0.55063 0.8904,-1.56455 2.98555,-2.46558 4.75572,-2.33464 0.59383,0.0628 1.18094,0.16181 1.69189,0.49382 0.55672,0.32868 1.04755,0.73353 1.5209,1.17441 0.72043,0.54706 1.39651,1.14149 1.92694,1.88196 0.62125,0.7323 1.17447,1.5227 1.72284,2.30923 0.52691,0.75924 0.99665,1.54196 1.28437,2.42706 0.35437,0.81183 0.74231,1.60864 1.02989,2.44794 0.29851,0.74887 0.50374,1.53343 0.67322,2.32027 0.21517,0.72425 0.40384,1.45564 0.59656,2.18595 0.0621,0.81854 0.19472,1.63231 0.20531,2.45312 0.003,0.78925 -0.001,1.57851 -0.003,2.36775 2.6e-4,0.80009 0.004,1.60215 -0.0643,2.39992 -0.0795,0.77845 -0.2505,1.52981 -0.40474,2.29486 -0.17838,0.80289 -0.48765,1.56239 -0.66319,2.36488 -0.26883,0.77285 -0.65026,1.48069 -1.03893,2.19675 -0.45723,0.71893 -0.94729,1.3863 -1.6075,1.93692 -1.41178,1.09208 -0.31764,0.26645 -3.97236,2.38009 -0.41007,0.23715 -0.86549,0.41494 -1.32622,0.51971 -0.66486,0.0852 -1.33548,0.0438 -2.00436,0.0537 -0.77582,-0.002 -1.5525,0.005 -2.32728,-0.0418 -0.80427,-0.0634 -1.59916,-0.19233 -2.35727,-0.48091 -0.829,-0.30894 -1.69405,-0.5393 -2.42644,-1.05834 -0.73234,-0.50247 -1.45439,-1.03388 -2.11031,-1.63207 -0.65687,-0.68099 -1.27392,-1.4227 -1.74622,-2.24442 -0.45225,-0.78899 -0.87689,-1.55274 -0.86626,-2.49232 -0.002,-0.83168 1.1e-4,-1.66337 -2.3e-4,-2.49504 0.002,-0.85729 0.004,-1.71553 0.0696,-2.57086 0.0898,-0.94522 0.24336,-1.87868 0.4235,-2.81066 0.21508,-0.95158 0.52702,-1.87156 0.82329,-2.79926 0.33458,-0.86259 0.70661,-1.70609 1.09922,-2.54358 0.46397,-0.90388 1.09464,-1.70375 1.53058,-2.62277 0.35004,-0.5252 0.72788,-1.03518 1.15534,-1.50116 0.10033,-0.10937 0.22018,-0.20019 0.31698,-0.3127 0.0967,-0.11245 0.17447,-0.23996 0.2617,-0.35993 0.4602,-0.66868 1.01629,-1.23283 1.52823,-1.8579 0.59201,-0.56344 1.14852,-1.1651 1.79469,-1.67075 0.97528,-1.15938 3.53518,-2.22889 4.13935,-2.60403 0.99522,-0.61795 -4.04706,2.36185 -3.03679,1.76883 0.21372,-0.12545 8.5503,-4.98636 0.64239,-0.37425 1.52299,-1.08868 3.07298,-2.414 4.94939,-2.68727 0.49581,-0.0122 0.96217,0.14429 1.19101,0.6177 0.13024,0.5736 -0.12698,1.04927 -0.343,1.56807 -0.3893,0.77076 -0.94728,1.44975 -1.57692,2.03711 -0.68542,0.76608 -1.35992,1.54365 -2.07157,2.28303 -0.14634,0.17745 -0.49343,0.60943 -0.66229,0.77056 -0.54787,0.52279 -1.22953,0.91136 -1.82337,1.37523 -1.04734,0.79722 -2.01443,1.70821 -2.97516,2.60571 -0.94674,0.83259 -1.92562,1.62906 -3.02491,2.25553 -0.94071,0.70418 -1.86255,1.42631 -2.7769,2.16433 -0.4322,0.31648 -0.81903,0.69588 -1.2643,0.99314 -0.44329,0.29594 -0.91522,0.5539 -1.35383,0.85885 -0.88456,0.51873 -1.58121,1.25572 -2.426055,1.82551 -0.690634,0.55446 -1.41211,1.0598 -2.140974,1.55941 -0.465936,0.3809 -0.241104,0.17787 -0.673526,0.61017 -0.431911,0.36957 -0.970058,0.61158 -1.349983,1.04704 -0.654651,0.51778 -1.16273,1.185 -1.74275,1.78075 0,0 -3.630893,1.54268 -3.630893,1.54268 z"
       inkscape:connector-curvature="0" />
  </g>
</svg>
