<?xml version="1.0" encoding="UTF-8" standalone="no"?>
<!-- Created with Inkscape (http://www.inkscape.org/) -->

<svg
   width="240mm"
   height="120mm"
   viewBox="0 0 240 120"
   version="1.1"
   id="svg8"
   inkscape:version="1.1.1 (1:1.1+202109281949+c3084ef5ed)"
   sodipodi:docname="nsquare.svg"
   xmlns:inkscape="http://www.inkscape.org/namespaces/inkscape"
   xmlns:sodipodi="http://sodipodi.sourceforge.net/DTD/sodipodi-0.dtd"
   xmlns="http://www.w3.org/2000/svg"
   xmlns:svg="http://www.w3.org/2000/svg"
   xmlns:rdf="http://www.w3.org/1999/02/22-rdf-syntax-ns#"
   xmlns:cc="http://creativecommons.org/ns#"
   xmlns:dc="http://purl.org/dc/elements/1.1/">
  <defs
     id="defs2">
    <inkscape:path-effect
       effect="powerstroke"
       id="path-effect866"
       is_visible="true"
       lpeversion="1"
       offset_points="4.511188,0.58548656 | 9.9567372,0.005481086 | 14.679646,0.45142833 | 17.525555,0.0043391931 | 18.839489,0.72814705 | 19.287065,0.16519384 | 19.957562,0.25890519 | 21.183503,0.11510281 | 21.864629,0.31874038 | 22.382761,0.082292416 | 23.056732,0.53920184 | 24.347978,0.34911473 | 24.910017,0.57087033 | 26.068401,0.00060900956 | 27.632734,0.37834719 | 28.512739,0.051765812 | 28.922808,0.082292416 | 29.269355,0.032277506 | 29.629912,0.46855673 | 32.06635,0.0030450478 | 33.829689,0.42219587"
       not_jump="true"
       sort_points="true"
       interpolator_type="CentripetalCatmullRom"
       interpolator_beta="0.75"
       start_linecap_type="round"
       linejoin_type="spiro"
       miter_limit="4"
       scale_width="1"
       end_linecap_type="round" />
    <inkscape:path-effect
       effect="simplify"
       id="path-effect864"
       is_visible="true"
       lpeversion="1"
       steps="1"
       threshold="0.0048554914"
       smooth_angles="0"
       helper_size="0"
       simplify_individual_paths="false"
       simplify_just_coalesce="false"
       step="1" />
    <inkscape:path-effect
       effect="powerstroke"
       id="path-effect859"
       is_visible="true"
       lpeversion="1"
       offset_points="1.1214137,1.3897598 | 2.5147097,0.65133572 | 3.4717671,0.95355671 | 4.8481942,0.78052187 | 7.4179535,0.98278917"
       not_jump="true"
       sort_points="true"
       interpolator_type="CentripetalCatmullRom"
       interpolator_beta="0.75"
       start_linecap_type="round"
       linejoin_type="spiro"
       miter_limit="4"
       scale_width="1"
       end_linecap_type="round" />
    <inkscape:path-effect
       effect="simplify"
       id="path-effect857"
       is_visible="true"
       lpeversion="1"
       steps="1"
       threshold="0.0048554914"
       smooth_angles="0"
       helper_size="0"
       simplify_individual_paths="false"
       simplify_just_coalesce="false"
       step="1" />
  </defs>
  <sodipodi:namedview
     id="base"
     pagecolor="#ffffff"
     bordercolor="#666666"
     borderopacity="1.0"
     inkscape:pageopacity="0.0"
     inkscape:pageshadow="2"
     inkscape:zoom="0.99437388"
     inkscape:cx="85.983755"
     inkscape:cy="182.52692"
     inkscape:document-units="mm"
     inkscape:current-layer="layer1"
     showgrid="false"
     showborder="true"
     width="200mm"
     showguides="true"
     inkscape:guide-bbox="true"
     inkscape:window-width="1848"
     inkscape:window-height="1016"
     inkscape:window-x="72"
     inkscape:window-y="27"
     inkscape:window-maximized="1"
     inkscape:pagecheckerboard="0">
    <inkscape:grid
       type="xygrid"
       id="grid815"
       units="mm"
       spacingx="10"
       spacingy="10"
       empspacing="4"
       dotted="false" />
  </sodipodi:namedview>
  <metadata
     id="metadata5">
    <rdf:RDF>
      <cc:Work
         rdf:about="">
        <dc:format>image/svg+xml</dc:format>
        <dc:type
           rdf:resource="http://purl.org/dc/dcmitype/StillImage" />
        <dc:title />
      </cc:Work>
    </rdf:RDF>
  </metadata>
  <g
     inkscape:label="Layer 1"
     inkscape:groupmode="layer"
     id="layer1"
     transform="translate(0,-177)">
    <path
       d="m 27.034684,217.85307 c 0.526299,-1.6694 1.434784,-3.93234 2.888627,-6.91976 0.07305,-0.1552 0.143833,-0.3125 0.208703,-0.46373 0.452818,-1.05563 0.752717,-2.26434 1.22819,-3.3092 l -1.600637,-0.41039 c 0.06472,0.0732 0.100135,0.23828 0.09623,0.44637 -0.0041,0.21874 -0.04966,0.46955 -0.120657,0.71661 -0.0044,0.0152 -0.0088,0.0304 -0.01338,0.0455 -0.07671,0.25534 -0.178158,0.50469 -0.281318,0.74064 -0.111942,0.25604 -0.248903,0.54567 -0.348628,0.79902 l 0.01226,-0.0457 c -0.524235,1.49291 -1.184477,3.25611 -1.677455,5.06957 -0.0283,0.10409 -0.05618,0.20845 -0.08361,0.31307 -0.468884,1.78806 -0.825373,3.71777 -0.87988,5.73092 -8e-5,0.003 -2.66e-4,0.006 -4.56e-4,0.009 -1.9e-4,0.003 -2.29e-4,0.006 -1.41e-4,0.009 0.0086,0.28882 0.03371,0.63169 0.09245,0.98585 0.0554,0.334 0.145678,0.70858 0.297872,1.06598 0.07385,0.17342 0.165263,0.34991 0.279508,0.51893 0.111474,0.16493 0.246321,0.32535 0.410927,0.46931 0.126284,0.11044 0.26884,0.20999 0.429111,0.29308 0.04292,0.0223 0.08702,0.0433 0.132307,0.0629 0.207521,0.09 0.434798,0.14953 0.681228,0.17436 0.02223,0.002 0.04456,0.003 0.06691,0.004 0.491148,0.007 0.949749,-0.0997 1.375017,-0.29677 0.399833,-0.18526 0.75328,-0.44223 1.069072,-0.73105 0.303893,-0.27793 0.575692,-0.58792 0.822643,-0.8965 0.2398,-0.29964 0.460797,-0.60402 0.660085,-0.87179 0.0089,-0.0119 0.01666,-0.0246 0.02467,-0.0371 2.143012,-3.34628 3.50059,-7.0955 4.704855,-10.76601 0.04918,-0.14991 0.09803,-0.3005 0.126743,-0.45564 0.02871,-0.15514 0.03693,-0.31521 0.01039,-0.47074 -0.02654,-0.15553 -0.0885,-0.30584 -0.185791,-0.43005 -0.09729,-0.12421 -0.229643,-0.22104 -0.378338,-0.27379 -0.148695,-0.0528 -0.312431,-0.061 -0.466331,-0.0262 -0.1539,0.0348 -0.297025,0.11163 -0.41658,0.21458 -0.239108,0.2059 -0.371903,0.50589 -0.490571,0.79828 -0.493351,1.21555 -0.949036,2.42936 -1.372988,3.61678 -0.577476,1.61741 -1.116012,3.23047 -1.726397,5.07352 -0.0024,0.007 -0.0048,0.0147 -0.007,0.0222 -1.639334,5.37583 -2.951677,10.72445 -3.685691,16.12986 -0.587623,3.91779 -1.044375,7.62734 -1.607501,10.87322 -0.828309,4.77439 -1.741129,7.94719 -2.688328,10.47732 a 0.98278917,0.98278917 90 0 0 1.84081,0.68914 c 0.996006,-2.6605 1.941688,-5.94873 2.794291,-10.82747 0.578187,-3.30849 1.042517,-7.04478 1.628151,-10.92362 6.87e-4,-0.005 0.0013,-0.009 0.002,-0.0137 0.721684,-5.26814 2.006282,-10.5011 3.619014,-15.81466 0.612305,-1.86273 1.121754,-3.41245 1.684644,-5.03278 0.40792,-1.17423 0.83768,-2.37069 1.298043,-3.56609 l -1.800475,-0.6436 c -1.146238,3.66962 -2.372813,7.25883 -4.328817,10.44169 l 0.02467,-0.0371 c -0.19515,0.29358 -0.377222,0.57169 -0.577536,0.8466 -0.20299,0.27859 -0.404732,0.52548 -0.614504,0.73281 -0.216988,0.21447 -0.428948,0.37289 -0.640104,0.47812 -0.207811,0.10357 -0.419339,0.15803 -0.645464,0.16112 -0.0739,-0.01 -0.130876,-0.0276 -0.175531,-0.0478 -0.01154,-0.005 -0.02253,-0.0107 -0.03305,-0.0165 -0.03864,-0.0211 -0.07317,-0.0473 -0.105064,-0.0788 -0.04216,-0.0416 -0.08198,-0.0946 -0.119167,-0.16125 -0.03852,-0.069 -0.07306,-0.1509 -0.102604,-0.24512 -0.06234,-0.19881 -0.09629,-0.43263 -0.108245,-0.67907 -0.01246,-0.25683 -5.14e-4,-0.51399 0.02074,-0.74261 l -5.97e-4,0.0177 c 0.112384,-1.82832 0.485227,-3.61795 0.913189,-5.33624 0.02506,-0.10062 0.05037,-0.20121 0.07589,-0.30177 0.428371,-1.68792 0.897016,-3.41702 1.325387,-5.10494 0.0019,-0.008 0.0048,-0.0151 0.0077,-0.0225 0.0014,-0.004 0.0027,-0.007 0.0035,-0.0114 7.63e-4,-0.004 9.79e-4,-0.008 0.0011,-0.0118 0.006,-0.20653 0.04211,-0.451 0.108416,-0.72151 0.0587,-0.23948 0.137918,-0.48792 0.239199,-0.76068 0.0059,-0.016 0.01193,-0.032 0.018,-0.0481 0.09849,-0.26121 0.214173,-0.53336 0.31814,-0.82421 0.09331,-0.26104 0.192044,-0.58008 0.213995,-0.91192 0.0069,-0.1039 0.01316,-0.20828 0.0044,-0.31204 -0.0087,-0.10376 -0.03271,-0.20689 -0.07789,-0.30071 -0.04519,-0.0938 -0.111585,-0.17766 -0.194241,-0.24099 -0.08266,-0.0633 -0.181015,-0.10573 -0.283599,-0.12361 -0.102583,-0.0179 -0.208869,-0.0114 -0.309677,0.0147 -0.100808,0.0261 -0.196078,0.0714 -0.283388,0.12817 -0.174619,0.11349 -0.316226,0.26998 -0.456262,0.42413 -0.885062,0.97426 -1.695778,2.09027 -2.254127,3.03548 -0.08092,0.13699 -0.162096,0.27804 -0.243832,0.42153 -1.621596,3.01413 -2.496636,5.70772 -3.024047,7.38066 a 1.3897598,1.3897598 90 0 0 2.650902,0.83572 z"
       id="path-1"
       inkscape:path-effect="#path-effect857;#path-effect859"
       inkscape:original-d="m 25.709233,217.43521 c 0.564256,-1.62108 0.971114,-2.93643 1.680395,-4.4764 0.600279,-1.3033 1.223383,-2.59668 1.882051,-3.87147 5.00663,-9.68988 -4.951321,12.3354 -0.907425,14.1551 3.526637,1.58693 7.467338,-10.44613 8.233956,-12.97551 0.048,-0.15838 -0.144174,0.29849 -0.201655,0.45369 -0.286649,0.77391 -0.567464,1.55002 -0.840206,2.32895 -1.90878,5.45125 -2.261199,6.37804 -3.898506,12.73354 -2.580766,10.0177 -2.477439,20.98621 -6.116648,30.66938"
       style="fill:#000000;fill-rule:nonzero;stroke:none;stroke-width:1px;stroke-linecap:butt;stroke-linejoin:miter;stroke-opacity:1" />
    <path
       d="m 32.428679,248.6218 c 0.06028,-0.0567 0.134902,-0.13119 0.222974,-0.22241 0.07682,-0.0796 0.164527,-0.17256 0.259402,-0.27521 0.08528,-0.0923 0.17582,-0.19178 0.264495,-0.2909 0.08144,-0.091 0.162218,-0.18276 0.232641,-0.26469 0.03345,-0.0389 0.06535,-0.0765 0.09393,-0.11097 0.02722,-0.0328 0.05409,-0.0659 0.07709,-0.0957 0.0113,-0.0147 0.02365,-0.0311 0.03563,-0.0481 0.01032,-0.0146 0.02756,-0.0398 0.0447,-0.0705 0.0082,-0.0147 0.02272,-0.0419 0.03662,-0.0771 0.0071,-0.0179 0.01673,-0.0448 0.02496,-0.0783 0.0076,-0.031 0.01853,-0.0855 0.01731,-0.15418 -6.33e-4,-0.0356 -0.0046,-0.0809 -0.01712,-0.13189 -0.01261,-0.0514 -0.03456,-0.11127 -0.07224,-0.17214 -0.03834,-0.0619 -0.08919,-0.11873 -0.151918,-0.16529 -0.0621,-0.0461 -0.126958,-0.0756 -0.187301,-0.0934 -0.114856,-0.0338 -0.212081,-0.0252 -0.26445,-0.0168 -0.0556,0.009 -0.09898,0.0239 -0.12479,0.034 -0.05046,0.0197 -0.08786,0.042 -0.10461,0.0524 -0.02009,0.0124 -0.0367,0.0242 -0.0482,0.0326 -0.02274,0.0166 -0.04319,0.0334 -0.05901,0.0468 -0.03205,0.0271 -0.06813,0.0599 -0.107803,0.0974 -0.07718,0.0728 -0.184449,0.17869 -0.330641,0.32726 -0.336292,0.33089 -0.606149,0.70574 -0.828284,1.11494 -0.210734,0.38819 -0.373841,0.79841 -0.51235,1.21971 -0.261544,0.79552 -0.432651,1.62527 -0.669975,2.35839 -0.0064,0.0197 -0.01159,0.0396 -0.01593,0.0598 -0.195733,0.9087 -0.457091,1.97683 -0.581775,3.01722 -0.0626,0.52237 -0.09435,1.05888 -0.06933,1.60052 0.02493,0.53981 0.106261,1.0854 0.269752,1.62872 0.0076,0.0253 0.01676,0.05 0.0275,0.0741 0.121249,0.27197 0.277511,0.5061 0.471166,0.69566 0.195259,0.19112 0.41833,0.3268 0.658205,0.41127 0.238479,0.084 0.48185,0.11334 0.716635,0.10698 0.234866,-0.006 0.465419,-0.0485 0.683584,-0.11096 0.437023,-0.12515 0.857751,-0.34155 1.220191,-0.57423 0.369914,-0.23749 0.700703,-0.50575 0.957242,-0.75134 1.375572,-1.25505 2.536712,-2.66055 3.555777,-4.03832 0.02379,-0.0322 0.04751,-0.0643 0.07116,-0.0965 1.02852,-1.39828 1.965327,-2.8387 2.933639,-4.2843 0.0026,-0.004 0.0053,-0.008 0.0078,-0.0118 3.892625,-6.0871 6.132204,-13.1023 7.46132,-20.33044 0.2161,-1.2128 0.482525,-2.45894 0.666354,-3.72722 0.18254,-1.25939 0.282875,-2.54185 0.16317,-3.83581 -6.29e-4,-0.007 -0.0012,-0.0136 -0.002,-0.0204 -8.48e-4,-0.007 -0.0022,-0.0135 -0.0038,-0.0201 -0.02963,-0.12368 -0.06474,-0.23477 -0.105758,-0.33321 -0.04095,-0.0983 -0.08878,-0.18634 -0.144735,-0.2623 -0.05614,-0.0762 -0.121492,-0.14159 -0.19708,-0.19173 -0.07632,-0.0506 -0.159112,-0.0831 -0.245658,-0.0969 -0.08586,-0.0138 -0.169396,-0.008 -0.247686,0.009 -0.07775,0.0175 -0.151287,0.0473 -0.219603,0.0836 -0.135104,0.0718 -0.263452,0.17647 -0.380941,0.29245 -0.11871,0.11718 -0.233809,0.25337 -0.341253,0.39574 -0.107791,0.14283 -0.209842,0.29449 -0.302117,0.44395 -0.09241,0.14969 -0.175676,0.29824 -0.245749,0.43518 -0.0694,0.13563 -0.126398,0.2609 -0.166892,0.366 -2.938265,5.59926 -4.631497,11.75697 -6.162258,17.71858 -0.453368,2.05199 -0.91855,4.08499 -1.221696,6.14662 -0.280863,1.91008 -0.415914,3.80556 -0.274473,5.69588 0.0135,0.1804 0.02952,0.36094 0.0482,0.54159 0.03115,0.34243 0.104017,0.74091 0.223554,1.13511 0.119015,0.39246 0.284705,0.782 0.502492,1.10721 0.108735,0.16236 0.230831,0.30926 0.367178,0.43265 0.136238,0.1233 0.287185,0.22356 0.45383,0.29214 0.166693,0.0686 0.348906,0.10543 0.547118,0.10191 0.198158,-0.004 0.411226,-0.0473 0.639393,-0.13883 0.594023,-0.28774 1.133583,-0.64381 1.635708,-1.04814 0.502818,-0.40488 0.967475,-0.85765 1.4073,-1.33567 0.878582,-0.95486 1.673049,-2.02883 2.45504,-3.00201 1.906185,-2.46937 3.462162,-5.12787 4.704084,-7.87527 0.02052,-0.0454 0.04044,-0.0918 0.04707,-0.14122 0.0066,-0.0494 -6.3e-4,-0.10092 -0.02337,-0.14524 -0.02274,-0.0443 -0.06013,-0.0802 -0.103229,-0.10519 -0.0431,-0.025 -0.09134,-0.0394 -0.139213,-0.0532 -0.08443,-0.0243 -0.169953,-0.029 -0.252984,-0.0175 -0.0821,0.0113 -0.157581,0.0378 -0.224934,0.0713 -0.06737,0.0336 -0.129287,0.0755 -0.185583,0.12094 -0.05666,0.0457 -0.110209,0.0971 -0.160635,0.15135 -0.100862,0.10857 -0.196101,0.23638 -0.28504,0.37158 -0.09005,0.13688 -0.176912,0.28636 -0.259544,0.4397 -0.166659,0.30927 -0.322789,0.64688 -0.457789,0.94747 -0.05464,0.12165 -0.136865,0.30777 -0.191501,0.42942 -0.05937,0.1326 -0.111793,0.24744 -0.157461,0.34071 -0.0045,0.009 -0.0081,0.0189 -0.01177,0.0285 -0.902571,2.37714 -1.706633,4.66978 -2.238416,7.02217 -0.258573,1.14383 -0.448624,2.29513 -0.548438,3.4559 -5.77e-4,0.007 -0.0013,0.0134 -0.0015,0.0201 -0.0042,0.13619 -0.0022,0.25835 0.0067,0.36695 0.0088,0.10786 0.02487,0.20955 0.05163,0.30172 0.01356,0.0467 0.03071,0.0939 0.05278,0.13978 0.02207,0.0459 0.05043,0.0933 0.08731,0.138 0.03733,0.0453 0.08377,0.0882 0.140632,0.12282 0.05759,0.0351 0.120226,0.0581 0.185073,0.0688 0.06417,0.0105 0.124498,0.008 0.178075,-0.002 0.05316,-0.009 0.100599,-0.0258 0.141412,-0.0442 0.07991,-0.0359 0.14893,-0.086 0.205671,-0.13431 0.05831,-0.0497 0.114169,-0.10663 0.166513,-0.16526 0.05297,-0.0593 0.105765,-0.12427 0.157428,-0.19156 0.103529,-0.13485 0.209466,-0.28832 0.311061,-0.44181 0.102649,-0.15509 0.205489,-0.31725 0.300481,-0.46746 0.09793,-0.15485 0.186016,-0.2946 0.267114,-0.41813 0.04044,-0.0616 0.07726,-0.11629 0.111004,-0.16448 0.03454,-0.0493 0.06247,-0.0871 0.08686,-0.11833 0.003,-0.004 0.0064,-0.007 0.01002,-0.0108 0.0036,-0.003 0.0069,-0.007 0.0098,-0.011 1.565957,-2.13506 2.643334,-3.8672 4.207703,-5.60234 0.03306,0.027 0.05136,0.06 0.06464,0.0984 0.01341,0.0388 0.02161,0.083 0.02527,0.13127 0.0074,0.0984 -0.0039,0.21433 -0.02829,0.34049 -0.0251,0.1297 -0.06427,0.27132 -0.112152,0.41793 -0.04935,0.15111 -0.108456,0.30898 -0.172091,0.46665 -0.01329,0.0329 -0.0268,0.0659 -0.04049,0.0989 -0.122336,0.29461 -0.267083,0.59239 -0.404667,0.86596 -0.06283,0.12492 -0.165108,0.32435 -0.227936,0.44927 -0.0719,0.14238 -0.141713,0.28335 -0.197364,0.40825 l 0.0024,-0.0106 c -0.290655,0.61236 -0.679476,1.17572 -0.95656,1.7498 -0.164385,0.34058 -0.289028,0.67758 -0.346955,1.01595 -0.02314,0.13515 -0.03516,0.26828 -0.03483,0.39824 7.18e-4,0.28009 0.06531,0.51934 0.157693,0.72468 0.05077,0.11286 0.09744,0.22769 0.153655,0.33794 0.05621,0.11026 0.128247,0.21745 0.23341,0.2827 0.05258,0.0326 0.112663,0.0537 0.174386,0.0581 0.06172,0.004 0.124543,-0.008 0.179811,-0.036 0.05527,-0.0278 0.102382,-0.0704 0.139522,-0.11992 0.03714,-0.0495 0.06436,-0.10557 0.0908,-0.16152 0.172329,-0.36472 0.212802,-0.71634 0.426261,-1.07646 0.132257,-0.22313 0.291169,-0.43356 0.467677,-0.64668 0.335238,-0.40477 0.730109,-0.82102 1.108703,-1.29376 -0.04022,0.0502 0.135273,-0.16878 0.09505,-0.11856 0.797195,-1.03424 1.713317,-2.53161 2.6237,-3.64775 0.01484,0.053 0.02528,0.10756 0.03192,0.16313 0.007,0.059 0.0098,0.119 0.0089,0.17911 -9.88e-4,0.0713 -0.0074,0.14403 -0.01798,0.21726 -0.04242,0.29337 -0.153595,0.6042 -0.266918,0.8991 -0.12617,0.32833 -0.260341,0.65066 -0.3512,0.98361 -0.04264,0.15624 -0.07557,0.31465 -0.0921,0.47359 -0.02038,0.1961 -0.01035,0.38376 0.02616,0.55926 0.0064,0.0308 0.01237,0.0618 0.02079,0.0922 0.0084,0.0304 0.01988,0.0603 0.0382,0.0859 0.01831,0.0256 0.04377,0.0462 0.07307,0.0578 0.0293,0.0116 0.06138,0.0135 0.09287,0.0142 0.166537,0.004 0.311655,-0.0487 0.434638,-0.12061 0.121407,-0.071 0.232414,-0.16761 0.338368,-0.26814 0.103381,-0.0981 0.208842,-0.20627 0.328743,-0.32295 0.0072,-0.007 0.01437,-0.014 0.02163,-0.021 0.110131,-0.10658 0.226194,-0.21393 0.349743,-0.32487 0.241531,-0.21689 0.551939,-0.4827 0.815165,-0.70274 0.127421,-0.10652 0.259024,-0.21497 0.377488,-0.30929 0.113722,-0.0905 0.218561,-0.17066 0.309992,-0.23453 0.0019,-0.001 0.0038,-0.003 0.0054,-0.004 0.0016,-0.002 0.0031,-0.003 0.0044,-0.005 0.0014,-0.002 0.0027,-0.004 0.0043,-0.005 0.0015,-0.002 0.0032,-0.003 0.005,-0.005 0.04991,-0.0429 0.09932,-0.0891 0.148096,-0.13856 0.151168,-0.15322 0.3022,-0.33926 0.459576,-0.55153 0.182346,-0.24594 0.356057,-0.50324 0.539886,-0.76424 0.173694,-0.24661 0.337333,-0.46863 0.497683,-0.65047 0.07955,-0.0902 0.154028,-0.16562 0.224254,-0.22692 0.072,-0.0628 0.135818,-0.10761 0.191966,-0.13806 l -0.515527,-0.38959 c -0.0094,0.45348 -0.06485,0.90918 -0.131367,1.3154 -0.03003,0.18338 -0.06327,0.36202 -0.09684,0.52709 -0.06101,0.30002 -0.128772,0.57803 -0.18958,0.82459 -0.113934,0.46197 -0.233265,0.92409 -0.274804,1.40666 -0.02391,0.27773 -0.02578,0.59815 0.0279,0.9514 0.02659,0.17492 0.06687,0.35556 0.123008,0.53973 0.01465,0.0481 0.02861,0.0967 0.05183,0.1413 0.02321,0.0446 0.05793,0.082 0.09517,0.11568 0.192355,0.17424 0.411635,0.30112 0.651463,0.36748 0.227161,0.0628 0.453379,0.0661 0.669926,0.0245 0.205603,-0.0396 0.397945,-0.11853 0.576301,-0.21894 0.17271,-0.0972 0.337112,-0.21728 0.49298,-0.34823 0.300746,-0.25266 0.586625,-0.56055 0.848262,-0.85216 0.129322,-0.14414 0.253851,-0.28562 0.372626,-0.41649 0.118314,-0.13037 0.230912,-0.25021 0.336544,-0.35132 0.07887,-0.0934 0.158195,-0.18556 0.23874,-0.27734 0.45331,-0.51654 1.061341,-1.15213 1.545532,-1.78303 0.275348,-0.35877 0.532376,-0.74117 0.741437,-1.15308 0.208858,-0.41152 0.369309,-0.85144 0.453875,-1.32613 0.0025,-0.014 0.0036,-0.0283 0.0017,-0.0424 -0.0019,-0.0141 -0.0053,-0.0279 -0.0079,-0.0419 -0.0412,-0.2182 -0.117555,-0.40828 -0.228632,-0.5662 -0.114643,-0.16298 -0.261436,-0.28544 -0.428411,-0.3703 -0.170748,-0.0868 -0.355762,-0.1309 -0.53924,-0.14487 -0.191101,-0.0145 -0.383533,0.003 -0.566008,0.0416 -0.20596,0.0432 -0.403677,0.11334 -0.583029,0.19819 -0.166645,0.0788 -0.324063,0.17292 -0.467588,0.27611 -0.156988,0.11287 -0.298051,0.23711 -0.41837,0.36619 -0.124191,0.13323 -0.226957,0.27231 -0.303413,0.41132 l 0.01388,-0.0178 c -0.675833,0.93033 -1.108193,1.86313 -1.434383,2.69446 -0.0095,0.0241 -0.01885,0.0482 -0.02813,0.0721 -0.333738,0.85981 -0.56458,1.66085 -0.599664,2.39752 -0.0076,0.15866 -0.0041,0.3152 0.0072,0.46932 2.09e-4,0.003 2.98e-4,0.006 5.93e-4,0.009 2.95e-4,0.003 0.001,0.006 0.0019,0.008 0.08076,0.23869 0.18993,0.40568 0.306951,0.52112 0.05901,0.0582 0.120598,0.10399 0.183524,0.14079 0.06231,0.0365 0.128035,0.0653 0.197029,0.0888 0.02131,0.007 0.04312,0.014 0.06544,0.0204 0.05144,0.0147 0.104779,0.0281 0.156995,0.0397 0.08226,0.0183 0.171377,0.0342 0.262826,0.0444 0.173348,0.0192 0.379141,0.0206 0.617012,-0.0362 0.185679,-0.0444 0.39601,-0.12568 0.628675,-0.26439 0.161927,-0.0965 0.332664,-0.2171 0.509612,-0.35837 0.153454,-0.12251 0.303437,-0.25406 0.446765,-0.38751 0.125898,-0.11721 0.240194,-0.22989 0.335636,-0.32617 0.842371,-0.73728 1.603382,-1.57441 2.460347,-2.57806 0.728668,-0.85339 1.502971,-1.79889 2.312989,-2.64802 l -0.0074,0.007 c 0.08162,-0.0804 0.149005,-0.14548 0.205246,-0.1985 0.05866,-0.0553 0.0963,-0.0892 0.128994,-0.11837 0.01425,-0.0127 0.02663,-0.0237 0.03252,-0.0298 0.0065,-0.007 0.0077,-0.01 1.94e-4,-0.0112 -0.004,-7.1e-4 -0.01051,-0.001 -0.0206,-0.002 -0.0097,-0.001 -0.02424,-0.004 -0.04044,-0.011 -0.01696,-0.007 -0.03419,-0.0183 -0.04878,-0.0343 -0.01445,-0.0158 -0.02289,-0.0326 -0.02723,-0.0471 -0.0042,-0.0141 -0.0044,-0.0252 -0.0036,-0.0321 8.11e-4,-0.007 0.0027,-0.011 0.0043,-0.0123 0.0035,-0.003 0.0058,0.003 0.006,0.0127 2.05e-4,0.01 -0.0016,0.0238 -0.0053,0.0404 -0.0037,0.0166 -0.0092,0.0358 -0.01629,0.057 -0.01429,0.0427 -0.03477,0.0929 -0.05987,0.14834 -0.02529,0.0559 -0.05521,0.11688 -0.08826,0.18122 -0.06702,0.13047 -0.147486,0.2757 -0.229336,0.4209 -0.08447,0.14984 -0.171128,0.30101 -0.250275,0.44245 -0.08264,0.14767 -0.155821,0.28238 -0.213803,0.39934 -0.02986,0.0602 -0.05529,0.11497 -0.07561,0.16357 -0.02089,0.0499 -0.03626,0.0931 -0.04555,0.12902 -0.06732,0.13818 -0.135198,0.27566 -0.202057,0.40981 -0.492036,0.98723 -0.924865,1.82721 -1.298783,2.73625 -0.225287,0.54769 -0.418274,1.09745 -0.56056,1.65598 -0.14317,0.56201 -0.238702,1.14737 -0.257559,1.75667 -7.39e-4,0.0239 -9.21e-4,0.0481 0.0046,0.0713 0.0056,0.0232 0.01676,0.0451 0.03255,0.0631 0.01579,0.0179 0.03579,0.0318 0.0571,0.0427 0.02132,0.0108 0.04393,0.0188 0.06646,0.0268 0.147745,0.0525 0.303332,0.0664 0.462184,0.0472 0.15346,-0.0186 0.306388,-0.0675 0.456984,-0.13845 0.145225,-0.0684 0.289435,-0.15798 0.431773,-0.26288 0.136895,-0.10088 0.272765,-0.21648 0.407412,-0.34256 0.254288,-0.23813 0.496441,-0.50603 0.734099,-0.77974 0.07078,-0.0815 0.138308,-0.16022 0.205901,-0.23879 0.03681,-0.0428 0.07359,-0.0854 0.109633,-0.12684 0.09466,-0.10877 0.185914,-0.21108 0.268904,-0.29662 0.006,-0.006 0.01188,-0.0127 0.0172,-0.0195 0.0053,-0.007 0.01034,-0.0139 0.01548,-0.0209 0.560496,-0.76309 1.262384,-1.73698 1.991184,-2.58018 0.665192,-0.7696 1.425035,-1.52135 2.332701,-2.13007 l -0.709764,-0.58099 c -0.115242,0.27583 -0.248608,0.57187 -0.376377,0.88555 -0.124662,0.30606 -0.246014,0.63498 -0.332244,0.97592 -0.08582,0.33934 -0.138952,0.69828 -0.12495,1.06985 0.01399,0.37113 0.09469,0.74667 0.267028,1.12058 0.488669,1.20265 1.325739,2.24122 2.321882,3.00043 1.07306,0.81783 2.309511,1.29985 3.54143,1.39393 0.607788,0.0317 1.139302,-0.15304 1.534142,-0.41762 0.240303,-0.16102 0.431487,-0.35119 0.578232,-0.54863 0.190076,-0.25573 0.299657,-0.5148 0.362932,-0.73973 a 0.42219587,0.42219587 90 0 0 -0.812844,-0.22866 c -0.03939,0.14002 -0.10912,0.29954 -0.22978,0.45607 -0.09333,0.12106 -0.216436,0.23913 -0.373095,0.33906 -0.259299,0.1654 -0.608632,0.27736 -0.996638,0.24821 -1.037669,-0.0881 -2.105859,-0.50881 -3.043124,-1.23391 -0.874563,-0.67659 -1.597713,-1.593 -2.011483,-2.633 -0.0029,-0.007 -0.0061,-0.0145 -0.0093,-0.0217 -0.11663,-0.25694 -0.169519,-0.51154 -0.177254,-0.76796 -0.0078,-0.25844 0.03018,-0.52409 0.101235,-0.80032 0.07182,-0.27921 0.175409,-0.5617 0.292996,-0.8503 0.119209,-0.29257 0.251,-0.58687 0.372092,-0.88064 0.04539,-0.11011 0.08925,-0.22442 0.08845,-0.34352 -4.03e-4,-0.0596 -0.01182,-0.11926 -0.03584,-0.17375 -0.02402,-0.0545 -0.06065,-0.10347 -0.106701,-0.14124 -0.04605,-0.0378 -0.101262,-0.0641 -0.159411,-0.0769 -0.05815,-0.0128 -0.118943,-0.0123 -0.177391,-8.6e-4 -0.116896,0.0228 -0.220135,0.0887 -0.318872,0.15532 -1.002958,0.67654 -1.821432,1.5017 -2.510213,2.3162 -0.752748,0.89015 -1.449136,1.89306 -1.985669,2.66554 -0.08578,0.10076 -0.173278,0.21142 -0.256359,0.31917 -0.03515,0.0456 -0.07043,0.0919 -0.10518,0.13771 -0.06254,0.0825 -0.127136,0.16889 -0.189482,0.2522 -0.216295,0.28905 -0.413946,0.55187 -0.61879,0.79335 -0.106967,0.1261 -0.210084,0.23929 -0.31023,0.33841 -0.104285,0.10321 -0.202948,0.18878 -0.296636,0.25667 -0.09669,0.0701 -0.186354,0.12007 -0.269669,0.15142 -0.03361,0.0126 -0.06694,0.0226 -0.10015,0.0295 -0.01751,-0.50047 0.01842,-0.99485 0.09622,-1.48341 0.08831,-0.55454 0.231612,-1.10834 0.418311,-1.6667 0.306013,-0.91519 0.710267,-1.79541 1.190703,-2.77584 0.06633,-0.13536 0.133653,-0.27122 0.202795,-0.41015 0.01058,-0.0357 0.02784,-0.0777 0.05137,-0.12594 0.02288,-0.047 0.05157,-0.0996 0.08531,-0.15729 0.06532,-0.11162 0.148672,-0.24041 0.243076,-0.37959 0.09105,-0.13424 0.190268,-0.27505 0.290613,-0.41587 0.09708,-0.13623 0.193865,-0.27054 0.280312,-0.39244 0.04233,-0.0597 0.0827,-0.11716 0.118833,-0.16974 0.03561,-0.0518 0.06877,-0.10134 0.09619,-0.14475 0.01373,-0.0217 0.02667,-0.043 0.03811,-0.063 0.0113,-0.0198 0.02206,-0.0399 0.03093,-0.0593 0.0086,-0.0189 0.0173,-0.041 0.02227,-0.0647 0.0025,-0.0121 0.0045,-0.0264 0.0044,-0.0421 -8.2e-5,-0.0157 -0.0022,-0.0349 -0.0092,-0.0556 -0.0072,-0.0212 -0.01941,-0.0437 -0.0387,-0.064 -0.01943,-0.0205 -0.04248,-0.035 -0.06636,-0.0445 -0.02317,-0.009 -0.04551,-0.0129 -0.06437,-0.0142 -0.01878,-0.001 -0.03621,-2e-4 -0.05109,0.002 -0.02912,0.004 -0.05695,0.0112 -0.08138,0.0197 -0.02519,0.009 -0.05119,0.0199 -0.07802,0.0331 -0.05355,0.0263 -0.115096,0.063 -0.186172,0.111 -0.0713,0.0481 -0.153339,0.10837 -0.247386,0.18197 -0.0013,0.001 -0.0026,0.002 -0.0037,0.003 -0.0012,0.001 -0.0024,0.002 -0.0036,0.003 -0.9002,0.78726 -1.772364,1.66947 -2.563603,2.45199 -0.957091,0.94654 -1.714288,1.66508 -2.558165,2.35061 -0.0064,0.005 -0.01225,0.011 -0.01849,0.0164 -0.104943,0.0904 -0.228852,0.20297 -0.347098,0.31111 -0.189157,0.17298 -0.216853,0.1988 -0.406009,0.37179 -0.150664,0.13749 -0.290157,0.26343 -0.408801,0.37255 -0.17496,0.1609 -0.298509,0.28652 -0.407789,0.40279 -0.133283,0.14181 -0.246133,0.27211 -0.35713,0.36173 -0.06031,0.0487 -0.124791,0.0897 -0.195431,0.11542 -0.04474,0.0163 -0.0925,0.0267 -0.1424,0.0282 -0.02137,6.3e-4 -0.04257,-1.8e-4 -0.06354,-0.002 -0.06851,-0.007 -0.133751,-0.0297 -0.193482,-0.066 -0.06015,-0.0366 -0.11392,-0.0868 -0.161118,-0.14944 -0.09153,-0.12148 -0.15928,-0.29056 -0.210073,-0.51411 0.0044,-0.14899 0.01249,-0.30027 0.02152,-0.4525 0.04249,-0.71639 0.1535,-1.51996 0.530886,-2.36649 0.01032,-0.0232 0.02086,-0.0463 0.03162,-0.0696 0.371653,-0.80243 0.984197,-1.61171 1.751501,-2.38379 0.0027,-0.003 0.0049,-0.006 0.0069,-0.009 0.002,-0.003 0.0043,-0.006 0.007,-0.009 0.07998,-0.0796 0.179007,-0.16352 0.295258,-0.24831 0.112396,-0.082 0.238887,-0.16335 0.375049,-0.2402 0.124486,-0.0702 0.255644,-0.13592 0.389209,-0.19404 0.144293,-0.0628 0.293297,-0.11824 0.441141,-0.15877 0.13132,-0.036 0.258148,-0.0592 0.376487,-0.0662 0.112708,-0.007 0.216185,0.001 0.307891,0.0264 0.08764,0.0239 0.173102,0.0653 0.250832,0.13657 0.07328,0.0672 0.144649,0.16566 0.201199,0.30917 -0.02181,0.41142 -0.105112,0.81406 -0.241761,1.21093 -0.143673,0.41726 -0.342881,0.81798 -0.577651,1.20073 -0.425279,0.69335 -0.968543,1.32751 -1.462427,1.84001 -0.08475,0.0879 -0.170206,0.17431 -0.255824,0.25929 -0.118147,0.0856 -0.248879,0.18465 -0.390832,0.29064 -0.142197,0.10616 -0.293066,0.21738 -0.450211,0.32673 -0.32355,0.22514 -0.657213,0.43061 -0.982278,0.56848 -0.166235,0.0705 -0.322208,0.11982 -0.465813,0.14613 -0.148698,0.0273 -0.274243,0.028 -0.378899,0.009 -0.107401,-0.0191 -0.188566,-0.0577 -0.257231,-0.10472 -0.03209,-0.022 -0.06517,-0.0484 -0.09906,-0.0795 -0.01768,-0.10298 -0.03256,-0.20399 -0.04569,-0.30233 -0.03575,-0.2678 -0.06114,-0.54976 -0.07772,-0.77517 -0.03021,-0.41062 -0.04838,-0.84245 -0.02076,-1.29925 0.01509,-0.24954 0.04353,-0.51314 0.09201,-0.82193 0.02655,-0.16908 0.0574,-0.3433 0.09182,-0.53312 0.07305,-0.40286 0.166984,-0.89614 0.220069,-1.38143 0.0075,-0.0686 0.01322,-0.1388 -0.0037,-0.20565 -0.01692,-0.0669 -0.05688,-0.12819 -0.113368,-0.16775 -0.05649,-0.0396 -0.126893,-0.0564 -0.195842,-0.0549 -0.06895,0.001 -0.136261,0.02 -0.20262,0.0387 -0.137636,0.0389 -0.271885,0.099 -0.401879,0.17349 -0.126671,0.0726 -0.250781,0.15978 -0.371662,0.25656 -0.239919,0.19208 -0.472581,0.42653 -0.687669,0.66524 -0.222679,0.24714 -0.440008,0.51437 -0.615681,0.73806 -0.152664,0.1944 -0.296243,0.38449 -0.397268,0.5261 -0.03438,0.0482 -0.06616,0.0945 -0.09546,0.13863 l 0.01909,-0.0199 c -0.101033,0.12564 -0.188941,0.26654 -0.266477,0.40691 -0.08282,0.14995 -0.159142,0.30914 -0.230781,0.46392 -0.155916,0.33687 -0.295349,0.66358 -0.470148,0.95259 -0.08308,0.13736 -0.17303,0.26389 -0.27256,0.37197 -0.0066,0.007 -0.01318,0.0142 -0.0198,0.0211 -0.111043,0.11641 -0.226778,0.2031 -0.340164,0.26145 -0.11942,0.0614 -0.232169,0.0894 -0.329062,0.0901 -0.09795,7.1e-4 -0.168428,-0.0257 -0.224655,-0.0601 l 0.224938,0.25011 c 0.01579,-0.13221 0.04152,-0.2871 0.06473,-0.44661 0.01951,-0.13408 0.0406,-0.27293 0.06368,-0.42054 0.04865,-0.31117 0.106074,-0.65245 0.158888,-1.00647 0.04664,-0.31267 0.09431,-0.6705 0.103797,-0.98603 0.0024,-0.0807 0.0025,-0.16171 -7.14e-4,-0.2417 -0.0027,-0.0675 -0.0081,-0.13586 -0.01745,-0.2042 -0.01858,-0.13617 -0.05304,-0.27468 -0.11516,-0.40777 -0.0087,-0.0186 -0.01791,-0.0373 -0.03207,-0.0522 -0.01416,-0.0149 -0.0332,-0.0253 -0.05358,-0.0277 -0.02038,-0.002 -0.04127,0.003 -0.05877,0.0139 -0.0175,0.0107 -0.0316,0.0261 -0.04527,0.0414 -1.000174,1.12108 -2.142062,2.56654 -2.976494,3.62293 -0.03073,0.0369 -0.06401,0.078 -0.09618,0.11869 -0.390791,0.49415 -0.644273,1.013 -0.93054,1.44821 -0.150608,0.22897 -0.310064,0.43651 -0.497083,0.60632 -0.297107,0.26977 -0.646502,0.34323 -0.963249,0.44437 l 0.971583,0.36126 c 0.05686,-0.15692 0.10889,-0.30621 0.144868,-0.49913 0.01652,-0.0886 0.03037,-0.18218 0.04325,-0.28247 0.03196,-0.24894 0.05958,-0.54108 0.09766,-0.87804 0.04734,-0.4189 0.179665,-1.42155 0.215227,-1.99283 5.7e-5,-9.2e-4 1.53e-4,-0.002 4.05e-4,-0.003 2.52e-4,-8.8e-4 6.38e-4,-0.002 0.001,-0.003 3.74e-4,-8.4e-4 7.21e-4,-0.002 8.98e-4,-0.003 1.78e-4,-9e-4 1.63e-4,-0.002 1.09e-4,-0.003 -0.007,-0.11774 8.66e-4,-0.25762 0.02081,-0.41246 0.01944,-0.1509 0.0501,-0.31414 0.08881,-0.48484 0.06777,-0.29881 0.158543,-0.61334 0.253551,-0.92025 -0.01369,0.0442 0.04527,-0.14631 0.03158,-0.10208 0.05005,-0.16206 0.09942,-0.32379 0.141961,-0.47574 0.04139,-0.14786 0.07702,-0.28892 0.101524,-0.41657 0.02387,-0.12431 0.0373,-0.23642 0.03527,-0.33079 -9.93e-4,-0.0463 -0.0057,-0.0884 -0.01479,-0.12587 -0.009,-0.0369 -0.02228,-0.0697 -0.04095,-0.0976 -1.491896,1.55993 -2.929852,3.43781 -4.529468,5.30751 -0.04495,0.0361 -0.09131,0.0789 -0.138546,0.12639 -0.04848,0.0487 -0.09905,0.10347 -0.151165,0.16251 -0.103433,0.11718 -0.214319,0.25282 -0.328531,0.39432 -0.112991,0.13999 -0.229608,0.28619 -0.344074,0.4241 -0.113877,0.13721 -0.224585,0.26495 -0.327005,0.37026 -0.05076,0.0522 -0.09831,0.0977 -0.141861,0.1351 -0.04361,0.0375 -0.08099,0.065 -0.11038,0.082 -0.02604,0.0151 -0.04965,0.0225 -0.0419,0.0138 0.0029,-0.003 0.01253,-0.009 0.03079,-0.0135 0.01836,-0.005 0.04503,-0.007 0.07737,-0.003 0.03307,0.004 0.06566,0.0157 0.09517,0.0325 0.02881,0.0165 0.04912,0.0351 0.06238,0.0494 0.0131,0.0141 0.01902,0.0231 0.02159,0.0249 0.0025,0.002 0.0019,-0.003 4.42e-4,-0.0155 -0.0033,-0.0278 -0.0082,-0.0698 -0.0094,-0.14515 -0.0011,-0.0684 0.0011,-0.15372 0.0083,-0.25988 0.121293,-1.11536 0.321569,-2.22494 0.579304,-3.33495 0.531947,-2.29098 1.30201,-4.5303 2.172066,-6.91486 0.04359,-0.10329 0.09094,-0.2223 0.140577,-0.34893 0.0742,-0.1893 0.09638,-0.2474 0.170585,-0.43669 0.119183,-0.30295 0.250491,-0.62659 0.387485,-0.9192 0.06763,-0.14446 0.135514,-0.27891 0.202891,-0.39822 0.06739,-0.11933 0.130974,-0.21763 0.190098,-0.29431 0.02915,-0.0378 0.05528,-0.0678 0.07845,-0.0917 0.02348,-0.0241 0.04057,-0.0385 0.05279,-0.0486 0.01169,-0.01 0.01512,-0.0122 0.01143,-0.0145 -0.0036,-0.002 -0.01413,-0.005 -0.01993,-0.01 -0.03686,-0.0281 -0.0744,-0.0553 -0.110951,-0.0838 -0.03655,-0.0285 -0.07201,-0.0593 -0.0985,-0.0973 -0.02649,-0.038 -0.04269,-0.0836 -0.04294,-0.12995 -2.53e-4,-0.0463 0.01584,-0.091 0.03365,-0.13381 -1.140607,2.74009 -2.587019,5.41583 -4.395432,7.91536 -0.751969,1.01105 -1.496819,2.09584 -2.336611,3.06989 -0.4186,0.48553 -0.862237,0.94538 -1.344733,1.35773 -0.481737,0.41171 -1.002692,0.77649 -1.57683,1.07236 -0.210351,0.0926 -0.409424,0.14091 -0.594603,0.15122 -0.185208,0.0103 -0.357538,-0.0174 -0.517594,-0.0765 -0.160277,-0.0592 -0.308369,-0.14997 -0.44438,-0.26573 -0.136132,-0.11585 -0.259656,-0.2563 -0.370756,-0.41408 -0.222742,-0.31632 -0.394091,-0.70015 -0.517463,-1.09048 -0.123794,-0.39168 -0.199007,-0.78893 -0.230019,-1.13085 -0.01866,-0.18062 -0.03458,-0.36106 -0.04789,-0.54138 -0.139549,-1.88948 0.0042,-3.78372 0.299242,-5.68968 0.318292,-2.05636 0.805044,-4.08439 1.285109,-6.12775 1.586205,-5.95813 3.347647,-12.07024 6.348003,-17.60092 0.0019,-0.004 0.0035,-0.007 0.0053,-0.011 0.0453,-0.0899 0.107279,-0.20172 0.182954,-0.32616 0.07538,-0.12397 0.163291,-0.25873 0.259562,-0.39392 0.09624,-0.13515 0.200154,-0.26976 0.307402,-0.39369 0.107443,-0.12415 0.216437,-0.2355 0.322413,-0.32515 0.107038,-0.0906 0.204339,-0.15324 0.286818,-0.18643 0.04054,-0.0163 0.07394,-0.024 0.100166,-0.0259 0.02598,-0.002 0.04289,0.002 0.05434,0.007 0.01042,0.005 0.02077,0.0126 0.03236,0.0242 0.01225,0.0123 0.03012,0.0331 0.05067,0.0682 0.02088,0.0356 0.04384,0.0847 0.06649,0.15207 0.02059,0.0612 0.04017,0.13533 0.05761,0.22452 0.06504,1.2256 -0.0762,2.44388 -0.29899,3.65892 -0.225205,1.22821 -0.533898,2.4535 -0.797295,3.68041 -1.405143,7.14913 -3.684322,13.99375 -7.521867,19.89138 -1.006583,1.44957 -1.936699,2.8383 -2.961635,4.20271 -0.02338,0.0311 -0.04681,0.0622 -0.07029,0.0933 -1.010343,1.33791 -2.132124,2.67039 -3.438101,3.84712 -0.0031,0.003 -0.0062,0.006 -0.0093,0.009 -0.207476,0.19261 -0.481097,0.40991 -0.78481,0.60084 -0.300845,0.18912 -0.612045,0.34019 -0.898928,0.42013 -0.14064,0.0392 -0.267014,0.0589 -0.377586,0.0612 -0.109263,0.002 -0.198474,-0.0126 -0.271606,-0.0389 -0.07087,-0.0255 -0.137584,-0.0654 -0.201606,-0.12856 -0.06103,-0.0602 -0.126298,-0.14747 -0.188913,-0.27963 -0.121816,-0.41948 -0.185683,-0.8488 -0.206157,-1.28867 -0.02125,-0.45659 0.0045,-0.92243 0.06037,-1.39585 0.112933,-0.95624 0.347136,-1.92697 0.548555,-2.87793 0.257839,-0.81782 0.419894,-1.6268 0.644798,-2.32702 0.121145,-0.37718 0.255218,-0.71622 0.41852,-1.02268 0.171049,-0.32099 0.37015,-0.59833 0.609019,-0.8368 0.0025,-0.002 0.005,-0.005 0.0075,-0.008 0.144327,-0.14906 0.24101,-0.2464 0.30364,-0.30751 0.03829,-0.0374 0.0456,-0.0436 0.05929,-0.0566 0.0038,-0.004 0.0013,-0.001 -0.0092,0.006 -0.0049,0.004 -0.01597,0.0114 -0.03116,0.0208 -0.01187,0.007 -0.04534,0.0276 -0.0926,0.046 -0.02421,0.009 -0.06621,0.024 -0.120623,0.0327 -0.05118,0.008 -0.147417,0.0168 -0.261481,-0.0168 -0.05995,-0.0177 -0.124453,-0.047 -0.18626,-0.0929 -0.06243,-0.0463 -0.113033,-0.10285 -0.151169,-0.16447 -0.03747,-0.0606 -0.05927,-0.12001 -0.07178,-0.17101 -0.0124,-0.0506 -0.01632,-0.0953 -0.01695,-0.13045 -0.0012,-0.0676 0.0096,-0.12091 0.0168,-0.1504 0.0079,-0.032 0.01698,-0.0572 0.02333,-0.0733 0.01245,-0.0315 0.02472,-0.0541 0.03008,-0.0636 0.01374,-0.0245 0.01791,-0.0289 0.01908,-0.0303 0.0014,-0.002 -0.0016,0.003 -0.0057,0.009 -0.0095,0.0133 -0.02581,0.0346 -0.04743,0.0617 -0.02207,0.0277 -0.04846,0.0599 -0.07799,0.0954 -0.06221,0.0746 -0.136189,0.16081 -0.212657,0.2482 -0.08304,0.0949 -0.168191,0.19031 -0.248088,0.2783 -0.08905,0.0981 -0.170022,0.18523 -0.238897,0.25751 -0.08045,0.0844 -0.139699,0.14364 -0.179468,0.18105 a 0.58548656,0.58548656 90 0 0 0.802318,0.85292 z"
       id="path-1-3"
       inkscape:path-effect="#path-effect864;#path-effect866"
       inkscape:original-d="m 32.02752,248.19534 c 2.615866,-2.76113 0.317965,-0.60808 0,0 -0.666877,1.27536 -3.488765,10.40332 -0.403294,10.43487 2.609593,0.0267 6.566341,-5.97308 7.225711,-6.86584 4.951773,-6.70452 7.576492,-13.89966 9.174965,-22.01904 0.179446,-0.91149 1.753621,-7.36923 0.974626,-8.77133 -1.037099,-1.86667 -4.561339,7.26738 -4.671493,7.56148 -1.708057,4.56035 -7.65739,22.82821 -4.06656,26.73742 2.402454,2.61546 8.607433,-7.39613 9.511041,-8.80157 0.07981,-0.12414 2.310294,-4.4331 2.150908,-4.44615 -1.250147,-0.10231 -5.237493,12.52165 -4.402636,14.18535 0.132154,0.26335 5.688821,-7.47005 6.318287,-7.68247 0.261025,-0.0881 -2.556835,7.32421 -1.814832,7.22878 0.09963,-0.0128 4.515302,-5.94534 4.906766,-6.41214 1.205042,-1.43695 -1.016823,4.54235 0.06722,3.59926 1.693506,-1.47331 2.841131,-3.5293 4.469854,-5.08131 0.551056,-0.5251 -1.304437,5.49886 0.10082,5.86771 2.16271,0.56767 8.660795,-7.54009 4.637892,-7.1078 -3.382337,0.36345 -6.294956,10.46936 -1.478741,6.35166 0.846568,-0.72379 1.648571,-1.49849 2.453367,-2.26846 1.285675,-1.23003 2.395492,-2.78981 3.797702,-3.87148 0.507151,-0.39122 -0.626225,1.11829 -0.907408,1.69378 -1.058901,2.16723 -2.156178,4.13169 -2.318946,6.56337 -0.01333,0.19913 -0.01083,0.66321 0.168038,0.57467 1.893175,-0.93709 3.307659,-3.7168 4.738712,-5.29304 0.865466,-0.95326 2.228002,-2.02821 2.218126,-1.96599 -0.09084,0.57225 -0.512456,1.04607 -0.672168,1.60304 -1.156228,4.0322 6.361224,8.5417 7.595405,4.83935"
       style="fill:#000000;fill-rule:nonzero;stroke:none;stroke-width:1px;stroke-linecap:butt;stroke-linejoin:miter;stroke-opacity:1" />
  </g>
</svg>
